<svg width="124" height="61" viewBox="0 0 124 61" fill="none" xmlns="http://www.w3.org/2000/svg">
<g style="mix-blend-mode:luminosity">
<g clip-path="url(#clip0_5729_59010)">
<path d="M43.7621 23.6676C43.7395 24.5409 43.8473 25.4127 44.0817 26.2542C44.3399 26.9739 44.6509 27.6735 45.012 28.3474C45.1413 28.5467 45.2118 28.7784 45.2155 29.0159C45.2155 29.3065 45.0411 29.5974 44.6633 29.8878L42.8324 31.1085C42.6115 31.2676 42.3488 31.3585 42.0768 31.37C41.7458 31.3472 41.4351 31.2022 41.205 30.9631C40.8133 30.5424 40.4628 30.085 40.1584 29.5972C39.8678 29.1032 39.5769 28.5506 39.2575 27.8824C36.9906 30.5558 34.1423 31.8925 30.7128 31.8925C28.2707 31.8925 26.3243 31.1947 24.9002 29.7992C23.4762 28.4038 22.7495 26.5448 22.7495 24.2198C22.7495 21.7494 23.6214 19.7441 25.3943 18.2328C27.1672 16.7215 29.5211 15.9658 32.5146 15.9658C33.5455 15.9742 34.5748 16.0519 35.5953 16.1984C36.6707 16.3438 37.7751 16.5762 38.9375 16.8378V14.7162C38.9375 12.5067 38.4723 10.9672 37.5716 10.0661C36.6413 9.16515 35.0722 8.72922 32.8342 8.72922C31.7766 8.72918 30.7228 8.85601 29.6954 9.107C28.627 9.36153 27.5781 9.69175 26.5565 10.0951C26.226 10.243 25.8862 10.3692 25.5393 10.4729C25.3888 10.5225 25.2324 10.5519 25.0742 10.5601C24.6673 10.5601 24.4638 10.2696 24.4638 9.65922V8.23515C24.4638 7.76999 24.5219 7.42112 24.6673 7.21794C24.8866 6.95303 25.1656 6.74386 25.4813 6.60758C26.647 6.03082 27.876 5.59193 29.1433 5.29981C30.6243 4.91982 32.1483 4.73419 33.6772 4.7476C37.1363 4.7476 39.6641 5.53223 41.2917 7.10165C42.8902 8.67108 43.7039 11.0542 43.7039 14.2512V23.6676H43.7621ZM31.9626 28.0851C32.9821 28.0739 33.9931 27.8972 34.956 27.562C36.0228 27.193 36.9745 26.5515 37.7169 25.7013C38.1854 25.1656 38.5236 24.5288 38.7051 23.8407C38.9048 23.0129 39.0023 22.1637 38.9956 21.3122V20.0928C38.1144 19.8783 37.2219 19.7134 36.3223 19.5987C35.416 19.4839 34.5035 19.426 33.59 19.4251C31.6428 19.4251 30.2187 19.8029 29.2596 20.588C28.3006 21.3732 27.8356 22.4771 27.8356 23.9302C27.8356 25.2961 28.1844 26.3134 28.9109 27.0109C29.6087 27.7376 30.6257 28.0863 31.9626 28.0863V28.0851ZM55.3001 31.224C54.7769 31.224 54.4282 31.1368 54.1956 30.9334C53.9631 30.759 53.7597 30.352 53.5853 29.7999L46.7552 7.33423C46.6228 6.95818 46.535 6.56787 46.4937 6.17133C46.4937 5.70617 46.7263 5.44468 47.1915 5.44468H50.0396C50.5918 5.44468 50.9699 5.5319 51.1731 5.73524C51.4057 5.90968 51.5799 6.31669 51.7545 6.86874L56.6371 26.1084L61.1708 6.86924C61.3161 6.28779 61.4904 5.91017 61.723 5.73574C61.9556 5.5613 62.3624 5.44518 62.8859 5.44518H65.2117C65.7639 5.44518 66.142 5.5324 66.3746 5.73574C66.6072 5.91017 66.8105 6.31719 66.9268 6.86924L71.5188 26.3414L76.545 6.86924C76.7195 6.28779 76.9228 5.91017 77.1265 5.73574C77.3591 5.5613 77.7369 5.44518 78.26 5.44518H80.9629C81.4281 5.44518 81.6896 5.67776 81.6896 6.17183C81.6828 6.3282 81.6633 6.48376 81.6314 6.63699C81.5859 6.8849 81.5178 7.12813 81.4279 7.36364L74.4237 29.8293C74.2494 30.4105 74.0459 30.7884 73.8134 30.9628C73.4848 31.1731 73.0984 31.2748 72.7089 31.2534H70.2094C69.6571 31.2534 69.279 31.1662 69.0465 30.9628C68.8139 30.7595 68.6105 30.3814 68.4942 29.7999L63.9898 11.0542L59.5139 29.7708C59.3686 30.3523 59.1943 30.7299 58.9617 30.9337C58.7292 31.1376 58.3223 31.2243 57.7988 31.2243L55.3001 31.224ZM92.646 32.0086C91.1387 32.0102 89.6365 31.8346 88.1703 31.4855C86.7171 31.1366 85.5836 30.7588 84.8281 30.3226C84.3629 30.0611 84.0435 29.7703 83.9272 29.5085C83.814 29.2519 83.7546 28.9749 83.7527 28.6945V27.2133C83.7527 26.6029 83.9853 26.3124 84.4212 26.3124C84.5992 26.313 84.7759 26.3424 84.9444 26.3996C85.1188 26.4577 85.3803 26.574 85.671 26.6901C86.6976 27.1416 87.7693 27.4826 88.868 27.7073C90.0064 27.9384 91.1649 28.0553 92.3265 28.0562C94.1574 28.0562 95.5816 27.7366 96.5698 27.0972C97.0432 26.8115 97.4325 26.4056 97.698 25.9206C97.9636 25.4356 98.0959 24.889 98.0816 24.3362C98.0918 23.9621 98.0277 23.5897 97.893 23.2404C97.7583 22.8912 97.5557 22.5722 97.2969 22.3018C96.7738 21.7496 95.7851 21.2552 94.3616 20.7901L90.1465 19.4824C88.0249 18.8141 86.4555 17.826 85.4966 16.5179C84.5609 15.3117 84.0501 13.8302 84.0434 12.3037C84.0198 11.1784 84.2903 10.0664 84.8281 9.0776C85.3473 8.14259 86.0611 7.32991 86.9213 6.69447C87.8271 6.00871 88.8518 5.49618 89.9439 5.18269C91.1336 4.84025 92.3671 4.67407 93.605 4.68945C94.256 4.68474 94.9065 4.72359 95.5522 4.80575C96.2207 4.89296 96.8314 5.00925 97.4413 5.12538C98.0227 5.27074 98.5748 5.41594 99.0979 5.59054C99.522 5.72172 99.9312 5.89707 100.319 6.11368C100.661 6.28625 100.959 6.5348 101.19 6.84033C101.379 7.12315 101.471 7.4598 101.452 7.7994V9.16531C101.452 9.77567 101.219 10.0956 100.783 10.0956C100.551 10.0956 100.173 9.97935 99.6791 9.74677C98.0224 8.9911 96.1624 8.61326 94.0989 8.61326C92.4423 8.61326 91.1345 8.87475 90.2336 9.4273C89.3327 9.97984 88.8677 10.8228 88.8677 12.0139C88.8597 12.3999 88.9333 12.7831 89.0835 13.1387C89.2337 13.4943 89.4573 13.8141 89.7395 14.0774C90.321 14.6296 91.3962 15.1819 92.9365 15.6759L97.0635 16.983C99.1567 17.6515 100.667 18.5815 101.568 19.773C102.455 20.9421 102.926 22.3744 102.905 23.8418C102.92 25.0092 102.661 26.1638 102.15 27.2131C101.634 28.2078 100.91 29.0801 100.028 29.7707C99.0684 30.5176 97.9727 31.0706 96.8019 31.3987C95.4557 31.8128 94.0542 32.0186 92.6458 32.0091L92.646 32.0086Z" fill="#252F3E"/>
<path d="M98.1384 46.1337C88.5767 53.196 74.6846 56.9451 62.7397 56.9451C45.9994 56.9457 30.9157 50.7553 19.5233 40.467C18.6224 39.653 19.4361 38.5489 20.5115 39.1878C32.8341 46.3374 48.0341 50.6674 63.7571 50.6674C74.3651 50.6674 86.0193 48.4579 96.7436 43.9247C98.3421 43.198 99.708 44.9713 98.1391 46.1342L98.1384 46.1337Z" fill="#FF9900"/>
<path d="M102.118 41.6001C100.897 40.0307 94.0386 40.8446 90.9288 41.2223C89.9985 41.3386 89.8535 40.5246 90.6963 39.9146C96.1601 36.0783 105.141 37.1826 106.187 38.4614C107.233 39.7692 105.896 48.7497 100.781 53.0511C99.9965 53.7196 99.2408 53.3707 99.5895 52.4989C100.752 49.6215 103.339 43.1405 102.118 41.6001Z" fill="#FF9900"/>
</g>
</g>
<defs>
<clipPath id="clip0_5729_59010">
<rect width="87.3839" height="52.2552" fill="white" transform="translate(19.1362 4.68945)"/>
</clipPath>
</defs>
</svg>
