<svg width="1440" height="102" viewBox="0 0 1440 102" fill="none" xmlns="http://www.w3.org/2000/svg">
<path opacity="0.4" d="M1818.17 93.0953C1898.49 94.3177 1969.67 84.9847 1989 80.2107V101.685H-11.0001V34.6851C24.6481 50.2898 123.867 80.7718 235.528 81.4992C412.224 82.6501 434.23 42.8732 689 41.5569C986.212 40.0212 1045.2 70.9767 1169.51 70.9767C1313.26 70.9767 1398.92 71.8578 1531.55 70.9767C1651.24 70.1816 1715.7 91.5361 1818.17 93.0953Z" fill="#85c26e"/>
<path opacity="0.4" d="M-98.0792 91.044C-189.733 92.5583 -270.939 80.9965 -293 75.0825V101.685H1989V18.6851C1948.33 38.0163 1835.12 75.7776 1707.71 76.6786C1506.1 78.1044 1480.99 28.8286 1190.3 27.1979C851.181 25.2955 747.333 70.6369 605.5 70.6369C441.481 70.6369 373.053 58.8173 221.721 57.7258C85.1514 56.7408 18.8336 89.1125 -98.0792 91.044Z" fill="#85c26e"/>
<path opacity="0.4" d="M518.358 90.8149C452.881 92.2906 394.869 81.0229 379.109 75.2593V101.185H2009.33V20.2964C1980.27 39.1359 1899.4 75.9368 1808.38 76.8149C1664.36 78.2044 1646.42 30.1819 1438.75 28.5927C1196.49 26.7387 1125.73 85.1112 1024.41 85.1112C907.233 85.1112 856.849 73.7305 748.74 72.6668C651.177 71.7068 601.878 88.9325 518.358 90.8149Z" fill="#85c26e"/>
</svg>
