<svg width="163" height="70" viewBox="0 0 163 70" fill="none" xmlns="http://www.w3.org/2000/svg">
<path d="M11.3151 38.6482C10.6187 38.4578 9.89611 38.3809 9.1752 38.4206C9.09798 38.4256 9.02273 38.4471 8.95453 38.4836C8.88632 38.5202 8.82674 38.5709 8.77981 38.6325C8.73288 38.694 8.69969 38.7649 8.68247 38.8403C8.66525 38.9158 8.66441 38.994 8.67999 39.0698C8.91216 40.2426 9.28167 41.3298 9.80348 42.2528C10.4688 43.314 11.2734 44.1727 12.1514 44.7708C12.7025 45.1302 13.2851 45.3878 13.8828 45.548C15.0703 45.8662 16.3181 45.7991 17.5032 45.3769C17.5772 45.3494 17.6448 45.3071 17.7018 45.2526C17.7588 45.1981 17.8041 45.1325 17.8348 45.0598C17.8656 44.9871 17.8812 44.909 17.8806 44.8301C17.8801 44.7512 17.8634 44.6732 17.8317 44.601C17.4613 43.7797 16.9891 43.0413 16.5116 42.3413C15.9148 41.4973 15.0758 40.7897 14.3121 40.1598C13.4271 39.4803 12.4044 38.9401 11.3151 38.6482ZM24.8765 35.8971C24.7891 35.874 24.6975 35.8724 24.6093 35.8922C22.7835 36.303 21.2373 37.255 20.1964 38.7237C19.5849 39.54 19.3149 40.4516 19.1498 41.4585C19.0014 42.2815 19.0804 43.1171 19.3121 43.9354C19.3315 44.0083 19.3674 44.0757 19.417 44.1324C19.4667 44.1891 19.5288 44.2336 19.5985 44.2624C19.6681 44.2911 19.7435 44.3035 19.8187 44.2984C19.8939 44.2933 19.9669 44.2709 20.0321 44.233C21.7247 43.3165 22.9961 41.917 23.8907 40.5102C24.4091 39.7172 24.7896 38.9185 24.9775 38.1397C25.1615 37.5466 25.2767 36.9545 25.2607 36.3678C25.2566 36.2583 25.217 36.1532 25.1477 36.0684C25.0784 35.9836 24.983 35.923 24.8765 35.8971ZM10.5254 34.2539C11.4051 35.2593 12.4589 35.921 13.6086 36.2291C14.2007 36.3877 14.8189 36.453 15.4511 36.423C15.5294 36.4185 15.6059 36.3978 15.6758 36.3621C15.7457 36.3265 15.8074 36.2767 15.857 36.216C15.9067 36.1553 15.9432 36.0849 15.9642 36.0093C15.9852 35.9337 15.9902 35.8546 15.979 35.777C15.6982 33.7651 14.9623 31.9605 13.8001 30.4223C12.7519 28.9587 11.2745 27.7362 9.52126 27.2664C9.47959 27.2553 9.43734 27.2439 9.39536 27.2339C9.321 27.2155 9.24351 27.2137 9.16837 27.2286C9.09323 27.2435 9.02228 27.2747 8.96053 27.32C8.89877 27.3653 8.84773 27.4237 8.811 27.4909C8.77427 27.5581 8.75275 27.6326 8.74796 27.709C8.65172 28.9131 8.68441 30.0722 8.98384 31.1241C9.32509 32.3487 9.85464 33.4164 10.5254 34.2539ZM24.5033 31.6088C24.7971 31.0806 25.0824 30.5366 25.2328 29.9595C25.3057 29.678 25.1171 29.4047 24.8408 29.3307C24.8065 29.3215 24.7715 29.3152 24.7354 29.3128C22.8899 29.1763 21.162 29.6464 19.7775 30.7647C18.4698 31.8681 17.5651 33.637 17.5647 35.5704C17.5631 35.6803 17.5984 35.7876 17.6651 35.8751C17.7318 35.9625 17.8259 36.025 17.9323 36.0525C18.0138 36.0741 18.0993 36.0761 18.1817 36.0582C20.0257 35.6662 21.649 34.6841 22.8174 33.5893C23.5246 32.9729 24.106 32.3082 24.5033 31.6088ZM11.7927 23.4659C12.6444 25.318 14.0769 26.5371 15.8512 27.0125L15.8855 27.0217C15.9614 27.0413 16.0407 27.0449 16.1181 27.0322C16.1955 27.0195 16.2694 26.9907 16.3351 26.9478C16.4007 26.9048 16.4567 26.8486 16.4993 26.7828C16.542 26.7169 16.5705 26.6429 16.5829 26.5654C16.713 25.6458 16.6634 24.7257 16.624 23.8475C16.5565 22.7819 16.2846 21.7184 15.9062 20.7194C15.2862 18.9502 14.1685 17.2941 12.5642 16.3301C12.4996 16.2901 12.4269 16.2651 12.3513 16.2572C12.2757 16.2492 12.1993 16.2584 12.1278 16.284C12.0563 16.3097 11.9915 16.3511 11.9382 16.4053C11.885 16.4595 11.8447 16.5251 11.8203 16.597C11.6499 17.0646 11.5063 17.5416 11.3904 18.0256C11.2261 18.6797 11.1328 19.3315 11.1485 19.9787C11.1526 21.2648 11.3549 22.451 11.7927 23.4659ZM18.1445 26.8321C18.1246 26.8968 18.1181 26.9648 18.1252 27.032C18.1324 27.0993 18.1531 27.1644 18.1861 27.2234C18.2191 27.2824 18.2638 27.3341 18.3174 27.3754C18.371 27.4166 18.4324 27.4466 18.4979 27.4634C18.5289 27.4718 18.5606 27.4774 18.5925 27.4802C20.4457 27.6452 22.2512 27.1756 23.6568 26.4601C24.4722 26.0661 25.2217 25.5981 25.782 25.0348C26.0484 24.7483 26.3287 24.4581 26.5763 24.1463C26.697 23.9887 26.8068 23.8231 26.9049 23.6506C27.0666 23.3666 26.9184 22.9995 26.6085 22.8773C26.3168 22.7624 26.024 22.6656 25.7305 22.587C24.2936 22.202 22.8463 22.2578 21.5034 22.8164C20.6478 23.1965 19.9001 23.8081 19.256 24.584C18.7115 25.2139 18.3827 25.9935 18.1445 26.8321ZM18.7896 18.0398C18.8552 18.0814 18.9291 18.1083 19.006 18.1188C19.083 18.1292 19.1614 18.1228 19.2357 18.1001C19.31 18.0774 19.3785 18.039 19.4365 17.9873C19.4946 17.9357 19.5408 17.8721 19.572 17.8009C19.9441 16.951 20.1502 16.0517 20.3316 15.1807C20.5472 14.1248 20.5877 13.0282 20.4777 11.9341C20.359 10.0318 19.7443 8.09445 18.4715 6.68139C18.4212 6.62468 18.3587 6.58003 18.2888 6.55078C18.2189 6.52152 18.1433 6.50841 18.0676 6.51241C17.9919 6.51641 17.9181 6.53743 17.8517 6.5739C17.7852 6.61037 17.7278 6.66135 17.6838 6.72305C16.1465 8.82042 15.5754 11.3285 15.8445 13.3842C16.1628 15.4459 17.2119 17.0566 18.7896 18.0398ZM21.2417 19.283C21.584 19.4237 21.9316 19.5401 22.2798 19.6334C23.6034 19.9821 24.987 20.0384 26.3346 19.7984C27.8894 19.556 29.1699 18.9905 30.1403 18.0475C30.3748 17.8185 30.3472 17.4281 30.0885 17.2199C29.249 16.544 28.3369 16.0616 27.3858 15.8067C26.6876 15.6196 25.9687 15.5555 25.2422 15.627C24.3466 15.7542 23.4566 16.1116 22.6367 16.6733C21.9695 17.1309 21.4412 17.7805 20.9908 18.5207C20.9502 18.5857 20.9245 18.6587 20.9153 18.7348C20.9062 18.8108 20.9138 18.8879 20.9378 18.9606C20.9617 19.0334 21.0014 19.0999 21.0539 19.1556C21.1064 19.2114 21.1705 19.2549 21.2417 19.283ZM24.0318 12.6062C24.1132 12.6274 24.1983 12.63 24.2807 12.6135C26.0972 12.2558 27.6649 11.4791 28.9025 10.3336C29.6253 9.74349 30.1649 8.91274 30.6987 8.0988C31.1283 7.41358 31.4746 6.62588 31.7281 5.74601C31.7502 5.67227 31.7559 5.5946 31.7448 5.51843C31.7337 5.44226 31.706 5.36944 31.6638 5.30508C31.6216 5.24071 31.5658 5.18636 31.5004 5.14584C31.4349 5.10531 31.3614 5.07959 31.285 5.07048C30.4758 4.97113 29.6384 5.03862 28.817 5.24745C27.7823 5.48968 26.8892 6.12108 26.0549 6.81413C24.595 8.15698 23.6494 10.1057 23.6579 12.1223C23.6602 12.3628 23.8189 12.5491 24.0318 12.6062ZM25.5122 66.819C25.903 67.0663 26.3001 67.2877 26.7218 67.438C27.002 67.5388 27.283 67.627 27.5628 67.7019C27.8825 67.7876 28.2017 67.8566 28.5174 67.9069C29.1121 68.0008 29.687 68.0453 30.254 68.0027C30.8148 67.9447 31.3676 67.8252 31.9024 67.6465C32.9422 67.2985 33.8436 66.7385 34.5658 65.9958C35.1734 65.3504 35.6585 64.5999 35.9975 63.7809C36.1223 63.4796 35.9486 63.1461 35.6291 63.055C35.5424 63.03 35.4554 63.0059 35.3683 62.9826C34.6358 62.7864 33.9089 62.6516 33.1525 62.6679C32.116 62.6704 31.1231 62.7152 30.1075 63.0072C29.606 63.1433 29.1093 63.321 28.6247 63.54C28.1499 63.7377 27.6932 63.9765 27.2599 64.2536C26.5253 64.7206 25.8782 65.3129 25.3483 66.0035C25.1505 66.2644 25.2313 66.6409 25.5122 66.819ZM36.9031 61.1C37.1359 60.2311 37.2339 59.3677 37.2423 58.5323C37.2587 57.4891 37.1428 56.4901 36.9227 55.6033C36.8193 55.1793 36.6817 54.7645 36.5111 54.3628C36.357 53.9605 36.1912 53.5655 35.988 53.2229C35.7972 52.8893 35.5636 52.5821 35.293 52.3091C35.1598 52.1786 35.0306 52.0393 34.8959 51.9072C34.8426 51.854 34.7764 51.8156 34.7037 51.7957C34.5039 51.7422 34.278 51.8407 34.1586 52.0535C33.7188 52.8339 33.3901 53.6428 33.1923 54.4654C33.0751 54.9669 32.9992 55.4783 32.9813 55.9789C32.9745 56.4635 33.0204 56.9409 33.1187 57.412C33.3228 58.3307 33.7 59.2982 34.3323 60.0073C34.8429 60.5589 35.4498 61.1003 36.1716 61.4461C36.2007 61.4601 36.2311 61.4713 36.2623 61.4796C36.3977 61.5138 36.5411 61.4929 36.6612 61.4217C36.7813 61.3505 36.8682 61.2352 36.9031 61.1ZM20.0465 61.5045C20.4502 61.7242 20.8789 61.8946 21.3234 62.0119C22.0004 62.1933 22.6922 62.2581 23.3426 62.247C25.2905 62.2366 27.0356 61.2682 28.2552 59.7036C28.3023 59.6408 28.3359 59.5689 28.354 59.4925C28.3721 59.4161 28.3742 59.3368 28.3603 59.2596C28.3464 59.1823 28.3167 59.1087 28.2731 59.0434C28.2295 58.9781 28.1729 58.9225 28.1069 58.8801C27.2041 58.2956 26.2146 57.8575 25.1751 57.5818C24.4165 57.3803 23.6392 57.2571 22.8555 57.2142C20.9784 57.1793 19.0904 57.5551 17.5406 58.7172C17.4778 58.7658 17.4255 58.8265 17.3869 58.8958C17.3482 58.9651 17.324 59.0415 17.3156 59.1204C17.3073 59.1993 17.315 59.279 17.3384 59.3549C17.3617 59.4307 17.4002 59.501 17.4514 59.5616C18.206 60.4221 19.1509 61.0241 20.0465 61.5045ZM29.0482 57.4815C29.1035 57.5332 29.1699 57.5717 29.2423 57.5939C29.3147 57.6162 29.3912 57.6216 29.466 57.6097C29.5408 57.5979 29.6119 57.5692 29.674 57.5257C29.736 57.4822 29.7872 57.4252 29.8239 57.3589C30.8128 55.6457 31.1996 53.7614 31.283 52.046C31.3164 51.1084 31.1834 50.2938 31.0185 49.4707C30.8905 48.8661 30.6329 48.3749 30.3347 47.8961C30.2684 47.786 30.1628 47.7052 30.0392 47.6701C29.9575 47.6489 29.8717 47.6502 29.7907 47.6737C29.7096 47.6972 29.6364 47.7421 29.5788 47.8037C28.1962 49.1954 27.2822 50.9238 27.1917 52.6795C27.0352 54.4579 27.6999 56.2519 29.0482 57.4815ZM21.8886 53.3829C22.1546 53.1893 22.1864 52.808 21.9691 52.5571C21.3944 51.8934 20.8005 51.2919 20.1204 50.7951C19.7009 50.4932 19.256 50.228 18.7908 50.0026C18.3507 49.7568 17.8982 49.5432 17.424 49.372C17.1801 49.2848 16.9328 49.2077 16.6825 49.1409C15.1548 48.7316 13.49 48.7016 11.9697 49.2671C11.8965 49.295 11.83 49.338 11.7745 49.3933C11.7189 49.4486 11.6756 49.5149 11.6474 49.588C11.6192 49.6611 11.6066 49.7393 11.6105 49.8176C11.6145 49.8958 11.6348 49.9724 11.6702 50.0423C12.1919 51.0821 12.88 51.9714 13.6039 52.7019C14.479 53.5397 15.5421 54.0754 16.5468 54.3857C16.6132 54.4053 16.6797 54.4243 16.7459 54.4421C17.6799 54.6963 18.6641 54.7027 19.6014 54.4607C20.4156 54.2604 21.1836 53.8947 21.8886 53.3829ZM22.3953 47.7102C22.3593 48.1894 22.3785 48.6817 22.4484 49.1746C22.5565 49.9721 22.7961 50.7815 23.2345 51.4839C23.2999 51.5916 23.4042 51.6699 23.5258 51.7027C23.6131 51.7254 23.7049 51.7249 23.7919 51.7012C23.879 51.6775 23.9583 51.6315 24.0221 51.5677C24.6316 50.967 25.1614 50.2905 25.5986 49.5549C26.105 48.6993 26.5151 47.7739 26.8065 46.8644C27.1013 45.954 27.1972 45.1164 27.2212 44.287C27.2597 43.6913 27.1868 43.0937 27.0063 42.5247C26.9823 42.444 26.9381 42.3709 26.8777 42.3123C26.8173 42.2537 26.7429 42.2116 26.6615 42.19C26.5285 42.1553 26.3871 42.1743 26.268 42.243C24.5841 43.1882 23.3461 44.5544 22.7471 46.2558C22.5782 46.7268 22.4603 47.214 22.3953 47.7102Z" fill="url(#paint0_linear_6556_58425)"/>
<path d="M152.731 41.9751C153.254 41.0517 153.624 39.9645 153.855 38.792C153.871 38.7162 153.87 38.6379 153.853 38.5623C153.836 38.4868 153.803 38.4158 153.756 38.3542C153.709 38.2926 153.65 38.2418 153.581 38.2053C153.513 38.1688 153.438 38.1474 153.36 38.1426C152.64 38.1029 151.917 38.1797 151.221 38.3701C150.131 38.6623 149.108 39.2023 148.224 39.8817C147.459 40.5119 146.621 41.2193 146.024 42.0633C145.546 42.7635 145.074 43.5012 144.704 44.323C144.672 44.3952 144.655 44.4732 144.655 44.5521C144.654 44.631 144.67 44.7092 144.701 44.7818C144.731 44.8545 144.777 44.9201 144.834 44.9746C144.891 45.0292 144.958 45.0715 145.032 45.099C146.217 45.5212 147.465 45.5883 148.652 45.2702C149.25 45.11 149.833 44.8522 150.384 44.4928C151.261 43.895 152.067 43.0359 152.731 41.9751ZM137.558 37.8618C137.746 38.6405 138.126 39.4392 138.644 40.2324C139.538 41.6394 140.811 43.0384 142.503 43.9552C142.568 43.9931 142.641 44.0155 142.717 44.0205C142.792 44.0256 142.867 44.0132 142.937 43.9842C143.007 43.9553 143.069 43.9107 143.118 43.8538C143.168 43.7969 143.204 43.7293 143.223 43.6563C143.456 42.8384 143.533 42.0038 143.387 41.1802C143.221 40.1729 142.952 39.2616 142.339 38.4457C141.298 36.9771 139.752 36.025 137.925 35.6145C137.837 35.5946 137.746 35.5962 137.658 35.6193C137.552 35.6453 137.457 35.7054 137.388 35.7904C137.319 35.8754 137.279 35.9807 137.276 36.0902C137.26 36.6763 137.374 37.2679 137.558 37.8618ZM153.787 27.4312C153.782 27.3548 153.761 27.2804 153.724 27.2132C153.688 27.146 153.637 27.0876 153.575 27.0423C153.513 26.9969 153.443 26.9657 153.368 26.9507C153.292 26.9358 153.215 26.9375 153.141 26.9558C153.099 26.9662 153.057 26.977 153.015 26.9883C151.26 27.4585 149.784 28.6807 148.735 30.1445C147.573 31.6826 146.838 33.4868 146.556 35.4991C146.545 35.5768 146.55 35.6559 146.571 35.7315C146.593 35.807 146.629 35.8773 146.679 35.938C146.729 35.9987 146.79 36.0484 146.86 36.084C146.93 36.1196 147.007 36.1403 147.085 36.1448C147.717 36.1749 148.335 36.1098 148.927 35.9511C150.077 35.6431 151.13 34.9815 152.011 33.9757C152.68 33.1387 153.211 32.0706 153.552 30.8459C153.851 29.7948 153.883 28.6353 153.787 27.4312ZM144.603 35.7746C144.814 35.718 144.971 35.5315 144.971 35.2922C144.97 33.359 144.066 31.5902 142.758 30.4868C141.374 29.3684 139.646 28.8987 137.8 29.0349C137.765 29.0374 137.729 29.0434 137.695 29.0527C137.419 29.1266 137.231 29.3997 137.304 29.6812C137.454 30.259 137.739 30.8024 138.031 31.3313C138.428 32.0305 139.01 32.6951 139.719 33.311C140.888 34.4058 142.51 35.3881 144.353 35.7803C144.44 35.7987 144.526 35.7954 144.603 35.7746ZM146.629 20.4416C146.251 21.4404 145.981 22.5035 145.911 23.5697C145.871 24.448 145.822 25.3678 145.953 26.2873C145.966 26.3647 145.995 26.4386 146.037 26.5043C146.08 26.57 146.136 26.626 146.202 26.6689C146.267 26.7117 146.341 26.7404 146.419 26.7532C146.496 26.7659 146.575 26.7624 146.651 26.7428L146.684 26.7339C148.456 26.2591 149.889 25.0405 150.743 23.1879C151.182 22.1727 151.383 20.9868 151.387 19.7008C151.402 19.0538 151.308 18.4021 151.145 17.7476C151.028 17.2639 150.885 16.787 150.715 16.3192C150.69 16.2473 150.65 16.1819 150.597 16.1277C150.543 16.0736 150.479 16.0322 150.407 16.0065C150.336 15.9809 150.259 15.9717 150.184 15.9796C150.108 15.9875 150.035 16.0124 149.971 16.0523C148.366 17.0165 147.25 18.672 146.629 20.4416ZM144.392 26.5539C144.153 25.7148 143.823 24.9361 143.28 24.3064C142.636 23.5307 141.887 22.9188 141.032 22.5384C139.689 21.9803 138.241 21.9243 136.804 22.3093C136.51 22.3879 136.218 22.4848 135.927 22.5993C135.618 22.7212 135.469 23.0884 135.632 23.3723C135.729 23.5446 135.838 23.7097 135.959 23.8677C136.207 24.1801 136.488 24.4701 136.754 24.7561C137.316 25.3197 138.063 25.7881 138.879 26.1821C140.283 26.8985 142.089 27.3673 143.944 27.2021C144.019 27.1973 144.093 27.1754 144.159 27.1381C144.225 27.1008 144.282 27.049 144.325 26.9866C144.368 26.9242 144.396 26.8529 144.408 26.778C144.42 26.703 144.414 26.6264 144.392 26.5539ZM143.597 17.8267C143.65 17.8126 143.7 17.791 143.746 17.7626C145.324 16.7792 146.374 15.1676 146.691 13.1063C146.959 11.0508 146.39 8.54287 144.851 6.44523C144.792 6.36182 144.708 6.29845 144.612 6.26351C144.515 6.22858 144.411 6.22372 144.312 6.24958C144.216 6.27562 144.13 6.32909 144.064 6.40341C142.791 7.81647 142.176 9.75465 142.057 11.6557C141.947 12.75 141.986 13.848 142.204 14.902C142.386 15.7734 142.591 16.673 142.962 17.5234C143.071 17.7725 143.346 17.894 143.597 17.8267ZM132.395 17.7696C133.366 18.7123 134.646 19.2782 136.201 19.5204C137.548 19.7603 138.932 19.704 140.255 19.3556C140.603 19.2623 140.951 19.1464 141.293 19.0052C141.364 18.977 141.429 18.9336 141.481 18.8779C141.534 18.8222 141.574 18.7556 141.598 18.6829C141.622 18.6101 141.63 18.533 141.621 18.4568C141.612 18.3807 141.587 18.3075 141.546 18.2423C141.094 17.5025 140.567 16.8528 139.898 16.3955C139.079 15.8337 138.189 15.4767 137.294 15.3494C136.574 15.2791 135.847 15.3399 135.149 15.5289C134.198 15.7837 133.286 16.2667 132.447 16.9426C132.188 17.1503 132.161 17.5404 132.395 17.7696ZM138.255 12.3355C138.337 12.3521 138.422 12.3496 138.504 12.3282C138.611 12.3004 138.706 12.2378 138.773 12.1502C138.841 12.0626 138.878 11.955 138.878 11.8443C138.887 9.82746 137.94 7.87988 136.481 6.53615C135.645 5.84357 134.752 5.212 133.718 4.96962C132.897 4.76064 132.059 4.69331 131.249 4.7928C131.173 4.8019 131.099 4.82764 131.034 4.86821C130.969 4.90877 130.913 4.96318 130.871 5.02761C130.828 5.09204 130.801 5.16492 130.79 5.24114C130.779 5.31735 130.785 5.39505 130.807 5.46876C131.062 6.34775 131.408 7.13545 131.837 7.82067C132.371 8.63461 132.91 9.46552 133.632 10.0558C134.871 11.2009 136.438 11.978 138.255 12.3355ZM130.633 67.3685C131.168 67.5471 131.721 67.6664 132.283 67.7244C132.85 67.767 133.424 67.7227 134.018 67.629C134.335 67.5783 134.654 67.5095 134.974 67.4236C135.253 67.3488 135.534 67.2608 135.814 67.1599C136.237 67.0093 136.632 66.7877 137.024 66.5409C137.304 66.3631 137.386 65.9863 137.189 65.7256C136.658 65.0358 136.01 64.4436 135.276 63.9755C134.842 63.6987 134.385 63.4599 133.91 63.2616C133.431 63.0443 132.934 62.8662 132.426 62.7291C131.413 62.4371 130.419 62.3926 129.384 62.3896C128.626 62.3737 127.9 62.5084 127.168 62.7045C127.082 62.7276 126.994 62.7517 126.908 62.7767C126.587 62.8681 126.413 63.2016 126.538 63.5029C126.877 64.3219 127.362 65.0725 127.97 65.7179C128.692 66.4605 129.594 67.0204 130.633 67.3685ZM126.362 61.1691C127.086 60.8223 127.693 60.2802 128.202 59.7303C128.834 59.0207 129.213 58.0527 129.417 57.1341C129.515 56.663 129.56 56.1857 129.554 55.701C129.533 55.1909 129.462 54.6841 129.342 54.1877C129.146 53.3647 128.817 52.5558 128.377 51.7748C128.259 51.5629 128.032 51.4642 127.831 51.5179C127.758 51.5378 127.692 51.5763 127.638 51.6295C127.504 51.7615 127.376 51.9006 127.242 52.0313C126.972 52.3048 126.738 52.6122 126.546 52.9458C126.346 53.2872 126.178 53.6827 126.026 54.0845C125.854 54.486 125.716 54.901 125.613 55.3253C125.382 56.284 125.275 57.2682 125.294 58.2541C125.297 59.1208 125.411 59.9835 125.632 60.8214C125.709 61.1069 125.997 61.2755 126.273 61.2017C126.303 61.1936 126.334 61.1826 126.362 61.1691ZM139.193 61.9696C139.874 61.9846 140.553 61.9053 141.212 61.7339C141.657 61.6165 142.086 61.4461 142.49 61.2264C143.384 60.7469 144.331 60.1437 145.084 59.2838C145.135 59.2233 145.174 59.1531 145.197 59.0773C145.221 59.0014 145.229 58.9216 145.221 58.8426C145.212 58.7637 145.188 58.6872 145.15 58.6178C145.111 58.5484 145.059 58.4876 144.996 58.439C143.444 57.2774 141.556 56.9009 139.68 56.9362C138.896 56.979 138.119 57.1021 137.361 57.3036C136.321 57.5795 135.331 58.0178 134.428 58.6024C134.149 58.7834 134.079 59.167 134.281 59.4255C135.499 60.9898 137.246 61.9585 139.193 61.9696ZM133.273 57.3228C133.352 57.3013 133.425 57.2607 133.486 57.2045C134.837 55.9737 135.501 54.1803 135.343 52.4018C135.253 50.646 134.341 48.9177 132.957 47.5257C132.899 47.464 132.826 47.4189 132.745 47.3953C132.664 47.3716 132.578 47.3703 132.497 47.3914C132.373 47.4261 132.268 47.5069 132.202 47.6171C131.902 48.0964 131.644 48.5877 131.518 49.1924C131.352 50.0164 131.219 50.8304 131.252 51.7681C131.336 53.4834 131.721 55.3682 132.711 57.0811C132.765 57.178 132.849 57.2543 132.951 57.2981C133.052 57.3418 133.166 57.3505 133.273 57.3228ZM145.987 54.1074C146.993 53.7976 148.058 53.2613 148.93 52.4243C149.655 51.6934 150.344 50.804 150.866 49.7641C150.901 49.6942 150.921 49.6177 150.925 49.5395C150.929 49.4613 150.916 49.3831 150.888 49.3101C150.86 49.2371 150.817 49.1707 150.761 49.1154C150.706 49.0601 150.639 49.017 150.566 48.989C149.045 48.4238 147.38 48.4539 145.852 48.8633C145.602 48.9303 145.354 49.007 145.112 49.0939C144.637 49.2652 144.184 49.479 143.745 49.7245C143.28 49.9503 142.834 50.2158 142.414 50.518C141.734 51.014 141.142 51.6153 140.565 52.28C140.35 52.5299 140.381 52.9112 140.647 53.105C141.353 53.6164 142.12 53.983 142.933 54.1838C143.938 54.4431 144.996 54.4163 145.987 54.1074ZM135.874 41.9128C135.792 41.9345 135.718 41.9766 135.658 42.0351C135.597 42.0936 135.553 42.1665 135.529 42.2469C135.348 42.8159 135.276 43.4135 135.314 44.0092C135.339 44.8382 135.433 45.6763 135.73 46.5863C136.031 47.5249 136.436 48.4271 136.937 49.2763C137.373 50.0125 137.903 50.6891 138.513 51.2892C138.577 51.353 138.656 51.399 138.743 51.4227C138.831 51.4463 138.922 51.4469 139.01 51.4242C139.131 51.3917 139.236 51.3138 139.301 51.2065C139.74 50.5034 139.978 49.6944 140.088 48.8964C140.157 48.4115 140.174 47.9207 140.141 47.4321C140.078 46.9344 139.954 46.445 139.789 45.9777C139.189 44.2766 137.953 42.9097 136.266 41.9654C136.147 41.8971 136.006 41.8782 135.874 41.9128Z" fill="url(#paint1_linear_6556_58425)"/>
<path d="M45.0805 47.9822L43.4385 42.164H44.572L45.6203 46.4396H45.6743L46.7936 42.164H47.8248L48.947 46.4424H48.9981L50.0464 42.164H51.18L49.5379 47.9822H48.4981L47.3334 43.8998H47.2879L46.1203 47.9822H45.0805ZM53.3518 48.0674C52.9143 48.0674 52.5365 47.9765 52.2183 47.7947C51.902 47.611 51.6586 47.3515 51.4882 47.0163C51.3177 46.6791 51.2325 46.2824 51.2325 45.8259C51.2325 45.3771 51.3177 44.9831 51.4882 44.6441C51.6605 44.3032 51.9011 44.038 52.2098 43.8487C52.5185 43.6574 52.8812 43.5617 53.2979 43.5617C53.5668 43.5617 53.8206 43.6053 54.0592 43.6924C54.2997 43.7776 54.5119 43.9102 54.6956 44.0901C54.8812 44.2701 55.027 44.4992 55.1331 44.7776C55.2391 45.0541 55.2922 45.3837 55.2922 45.7663V46.0816H51.7155V45.3884H54.3064C54.3045 45.1915 54.2619 45.0163 54.1785 44.8629C54.0952 44.7076 53.9787 44.5854 53.8291 44.4964C53.6814 44.4074 53.509 44.3629 53.3121 44.3629C53.1018 44.3629 52.9172 44.414 52.7581 44.5163C52.599 44.6166 52.4749 44.7492 52.3859 44.914C52.2988 45.0769 52.2543 45.2559 52.2524 45.4509V46.056C52.2524 46.3098 52.2988 46.5276 52.3916 46.7095C52.4844 46.8894 52.6141 47.0276 52.7808 47.1242C52.9475 47.2189 53.1425 47.2663 53.366 47.2663C53.5157 47.2663 53.6511 47.2454 53.7723 47.2038C53.8935 47.1602 53.9986 47.0968 54.0876 47.0134C54.1766 46.9301 54.2439 46.8269 54.2893 46.7038L55.2496 46.8117C55.189 47.0655 55.0734 47.2871 54.903 47.4765C54.7344 47.664 54.5185 47.8098 54.2552 47.914C53.992 48.0163 53.6908 48.0674 53.3518 48.0674ZM57.1906 42.164V47.9822H56.1622V42.164H57.1906ZM59.2765 42.164V47.9822H58.2481V42.164H59.2765ZM61.3625 45.4254V47.9822H60.3341V43.6185H61.317V44.36H61.3682C61.4685 44.1157 61.6286 43.9216 61.8483 43.7776C62.0699 43.6337 62.3435 43.5617 62.6693 43.5617C62.9704 43.5617 63.2327 43.6261 63.4562 43.7549C63.6816 43.8837 63.8559 44.0702 63.979 44.3146C64.104 44.5589 64.1655 44.8553 64.1636 45.2038V47.9822H63.1352V45.3629C63.1352 45.0712 63.0595 44.843 62.9079 44.6782C62.7583 44.5134 62.5509 44.431 62.2858 44.431C62.1059 44.431 61.9458 44.4708 61.8057 44.5504C61.6674 44.628 61.5585 44.7407 61.479 44.8884C61.4013 45.0362 61.3625 45.2151 61.3625 45.4254ZM67.1409 48.0674C66.7034 48.0674 66.3256 47.9765 66.0074 47.7947C65.6911 47.611 65.4477 47.3515 65.2773 47.0163C65.1068 46.6791 65.0216 46.2824 65.0216 45.8259C65.0216 45.3771 65.1068 44.9831 65.2773 44.6441C65.4496 44.3032 65.6901 44.038 65.9988 43.8487C66.3076 43.6574 66.6702 43.5617 67.0869 43.5617C67.3559 43.5617 67.6096 43.6053 67.8483 43.6924C68.0888 43.7776 68.3009 43.9102 68.4846 44.0901C68.6702 44.2701 68.8161 44.4992 68.9221 44.7776C69.0282 45.0541 69.0812 45.3837 69.0812 45.7663V46.0816H65.5045V45.3884H68.0954C68.0935 45.1915 68.0509 45.0163 67.9676 44.8629C67.8843 44.7076 67.7678 44.5854 67.6182 44.4964C67.4704 44.4074 67.2981 44.3629 67.1011 44.3629C66.8909 44.3629 66.7062 44.414 66.5471 44.5163C66.3881 44.6166 66.264 44.7492 66.175 44.914C66.0879 45.0769 66.0434 45.2559 66.0415 45.4509V46.056C66.0415 46.3098 66.0879 46.5276 66.1807 46.7095C66.2735 46.8894 66.4032 47.0276 66.5699 47.1242C66.7365 47.2189 66.9316 47.2663 67.1551 47.2663C67.3047 47.2663 67.4401 47.2454 67.5613 47.2038C67.6826 47.1602 67.7877 47.0968 67.8767 47.0134C67.9657 46.9301 68.0329 46.8269 68.0784 46.7038L69.0386 46.8117C68.978 47.0655 68.8625 47.2871 68.692 47.4765C68.5235 47.664 68.3076 47.8098 68.0443 47.914C67.781 48.0163 67.4799 48.0674 67.1409 48.0674ZM73.4001 44.772L72.4626 44.8742C72.4361 44.7795 72.3897 44.6905 72.3234 44.6072C72.259 44.5238 72.1719 44.4566 72.0621 44.4055C71.9522 44.3543 71.8177 44.3288 71.6586 44.3288C71.4446 44.3288 71.2647 44.3752 71.1189 44.468C70.9749 44.5608 70.9039 44.681 70.9058 44.8288C70.9039 44.9557 70.9503 45.0589 71.045 45.1384C71.1416 45.218 71.3007 45.2833 71.5223 45.3345L72.2666 45.4935C72.6795 45.5826 72.9863 45.7237 73.1871 45.9168C73.3897 46.11 73.492 46.3629 73.4939 46.6754C73.492 46.95 73.4115 47.1924 73.2524 47.4026C73.0952 47.611 72.8765 47.7738 72.5961 47.8913C72.3158 48.0087 71.9939 48.0674 71.6302 48.0674C71.0961 48.0674 70.6662 47.9557 70.3405 47.7322C70.0147 47.5068 69.8206 47.1934 69.7581 46.7918L70.7609 46.6952C70.8064 46.8922 70.903 47.0409 71.0507 47.1413C71.1984 47.2416 71.3907 47.2918 71.6274 47.2918C71.8717 47.2918 72.0677 47.2416 72.2155 47.1413C72.3651 47.0409 72.4399 46.9168 72.4399 46.7691C72.4399 46.6441 72.3916 46.5409 72.295 46.4595C72.2003 46.378 72.0526 46.3155 71.8518 46.272L71.1075 46.1157C70.689 46.0286 70.3793 45.8818 70.1785 45.6754C69.9778 45.467 69.8783 45.2038 69.8802 44.8856C69.8783 44.6166 69.9513 44.3837 70.099 44.1867C70.2486 43.9879 70.456 43.8345 70.7211 43.7265C70.9882 43.6166 71.296 43.5617 71.6444 43.5617C72.1558 43.5617 72.5583 43.6706 72.8518 43.8884C73.1473 44.1062 73.33 44.4007 73.4001 44.772ZM77.7907 44.772L76.8532 44.8742C76.8267 44.7795 76.7803 44.6905 76.714 44.6072C76.6497 44.5238 76.5625 44.4566 76.4527 44.4055C76.3428 44.3543 76.2084 44.3288 76.0493 44.3288C75.8353 44.3288 75.6553 44.3752 75.5095 44.468C75.3656 44.5608 75.2945 44.681 75.2964 44.8288C75.2945 44.9557 75.3409 45.0589 75.4356 45.1384C75.5322 45.218 75.6913 45.2833 75.9129 45.3345L76.6572 45.4935C77.0701 45.5826 77.3769 45.7237 77.5777 45.9168C77.7803 46.11 77.8826 46.3629 77.8845 46.6754C77.8826 46.95 77.8021 47.1924 77.643 47.4026C77.4858 47.611 77.2671 47.7738 76.9868 47.8913C76.7065 48.0087 76.3845 48.0674 76.0209 48.0674C75.4868 48.0674 75.0568 47.9557 74.7311 47.7322C74.4053 47.5068 74.2112 47.1934 74.1487 46.7918L75.1515 46.6952C75.197 46.8922 75.2936 47.0409 75.4413 47.1413C75.589 47.2416 75.7813 47.2918 76.018 47.2918C76.2623 47.2918 76.4584 47.2416 76.6061 47.1413C76.7557 47.0409 76.8305 46.9168 76.8305 46.7691C76.8305 46.6441 76.7822 46.5409 76.6856 46.4595C76.5909 46.378 76.4432 46.3155 76.2425 46.272L75.4981 46.1157C75.0796 46.0286 74.7699 45.8818 74.5692 45.6754C74.3684 45.467 74.269 45.2038 74.2709 44.8856C74.269 44.6166 74.3419 44.3837 74.4896 44.1867C74.6392 43.9879 74.8466 43.8345 75.1118 43.7265C75.3788 43.6166 75.6866 43.5617 76.0351 43.5617C76.5464 43.5617 76.9489 43.6706 77.2425 43.8884C77.5379 44.1062 77.7207 44.4007 77.7907 44.772ZM80.7623 47.9822V42.164H84.5464V43.0475H81.8163V44.6271H84.3504V45.5106H81.8163V47.0987H84.5692V47.9822H80.7623ZM89.0251 44.772L88.0876 44.8742C88.0611 44.7795 88.0147 44.6905 87.9484 44.6072C87.884 44.5238 87.7969 44.4566 87.6871 44.4055C87.5772 44.3543 87.4427 44.3288 87.2836 44.3288C87.0696 44.3288 86.8897 44.3752 86.7439 44.468C86.5999 44.5608 86.5289 44.681 86.5308 44.8288C86.5289 44.9557 86.5753 45.0589 86.67 45.1384C86.7666 45.218 86.9257 45.2833 87.1473 45.3345L87.8916 45.4935C88.3045 45.5826 88.6113 45.7237 88.8121 45.9168C89.0147 46.11 89.117 46.3629 89.1189 46.6754C89.117 46.95 89.0365 47.1924 88.8774 47.4026C88.7202 47.611 88.5015 47.7738 88.2211 47.8913C87.9408 48.0087 87.6189 48.0674 87.2552 48.0674C86.7211 48.0674 86.2912 47.9557 85.9655 47.7322C85.6397 47.5068 85.4456 47.1934 85.3831 46.7918L86.3859 46.6952C86.4314 46.8922 86.528 47.0409 86.6757 47.1413C86.8234 47.2416 87.0157 47.2918 87.2524 47.2918C87.4967 47.2918 87.6927 47.2416 87.8405 47.1413C87.9901 47.0409 88.0649 46.9168 88.0649 46.7691C88.0649 46.6441 88.0166 46.5409 87.92 46.4595C87.8253 46.378 87.6776 46.3155 87.4768 46.272L86.7325 46.1157C86.314 46.0286 86.0043 45.8818 85.8035 45.6754C85.6028 45.467 85.5033 45.2038 85.5052 44.8856C85.5033 44.6166 85.5763 44.3837 85.724 44.1867C85.8736 43.9879 86.081 43.8345 86.3461 43.7265C86.6132 43.6166 86.921 43.5617 87.2694 43.5617C87.7808 43.5617 88.1833 43.6706 88.4768 43.8884C88.7723 44.1062 88.955 44.4007 89.0251 44.772ZM93.4157 44.772L92.4782 44.8742C92.4517 44.7795 92.4053 44.6905 92.339 44.6072C92.2747 44.5238 92.1875 44.4566 92.0777 44.4055C91.9678 44.3543 91.8334 44.3288 91.6743 44.3288C91.4603 44.3288 91.2803 44.3752 91.1345 44.468C90.9906 44.5608 90.9195 44.681 90.9214 44.8288C90.9195 44.9557 90.9659 45.0589 91.0606 45.1384C91.1572 45.218 91.3163 45.2833 91.5379 45.3345L92.2822 45.4935C92.6951 45.5826 93.0019 45.7237 93.2027 45.9168C93.4053 46.11 93.5076 46.3629 93.5095 46.6754C93.5076 46.95 93.4271 47.1924 93.268 47.4026C93.1108 47.611 92.8921 47.7738 92.6118 47.8913C92.3315 48.0087 92.0095 48.0674 91.6459 48.0674C91.1118 48.0674 90.6818 47.9557 90.3561 47.7322C90.0303 47.5068 89.8362 47.1934 89.7737 46.7918L90.7765 46.6952C90.822 46.8922 90.9186 47.0409 91.0663 47.1413C91.214 47.2416 91.4063 47.2918 91.643 47.2918C91.8873 47.2918 92.0834 47.2416 92.2311 47.1413C92.3807 47.0409 92.4555 46.9168 92.4555 46.7691C92.4555 46.6441 92.4072 46.5409 92.3106 46.4595C92.2159 46.378 92.0682 46.3155 91.8675 46.272L91.1231 46.1157C90.7046 46.0286 90.3949 45.8818 90.1942 45.6754C89.9934 45.467 89.894 45.2038 89.8959 44.8856C89.894 44.6166 89.9669 44.3837 90.1146 44.1867C90.2642 43.9879 90.4716 43.8345 90.7368 43.7265C91.0038 43.6166 91.3116 43.5617 91.6601 43.5617C92.1714 43.5617 92.5739 43.6706 92.8675 43.8884C93.1629 44.1062 93.3457 44.4007 93.4157 44.772ZM96.2893 48.0674C95.8518 48.0674 95.474 47.9765 95.1558 47.7947C94.8395 47.611 94.5961 47.3515 94.4257 47.0163C94.2552 46.6791 94.17 46.2824 94.17 45.8259C94.17 45.3771 94.2552 44.9831 94.4257 44.6441C94.598 44.3032 94.8386 44.038 95.1473 43.8487C95.456 43.6574 95.8187 43.5617 96.2354 43.5617C96.5043 43.5617 96.7581 43.6053 96.9967 43.6924C97.2372 43.7776 97.4494 43.9102 97.6331 44.0901C97.8187 44.2701 97.9645 44.4992 98.0706 44.7776C98.1766 45.0541 98.2297 45.3837 98.2297 45.7663V46.0816H94.653V45.3884H97.2439C97.242 45.1915 97.1994 45.0163 97.116 44.8629C97.0327 44.7076 96.9162 44.5854 96.7666 44.4964C96.6189 44.4074 96.4465 44.3629 96.2496 44.3629C96.0393 44.3629 95.8547 44.414 95.6956 44.5163C95.5365 44.6166 95.4124 44.7492 95.3234 44.914C95.2363 45.0769 95.1918 45.2559 95.1899 45.4509V46.056C95.1899 46.3098 95.2363 46.5276 95.3291 46.7095C95.4219 46.8894 95.5516 47.0276 95.7183 47.1242C95.885 47.2189 96.08 47.2663 96.3035 47.2663C96.4532 47.2663 96.5886 47.2454 96.7098 47.2038C96.831 47.1602 96.9361 47.0968 97.0251 47.0134C97.1141 46.9301 97.1814 46.8269 97.2268 46.7038L98.1871 46.8117C98.1265 47.0655 98.0109 47.2871 97.8405 47.4765C97.6719 47.664 97.456 47.8098 97.1927 47.914C96.9295 48.0163 96.6283 48.0674 96.2893 48.0674ZM100.128 45.4254V47.9822H99.0997V43.6185H100.083V44.36H100.134C100.234 44.1157 100.394 43.9216 100.614 43.7776C100.835 43.6337 101.109 43.5617 101.435 43.5617C101.736 43.5617 101.998 43.6261 102.222 43.7549C102.447 43.8837 102.621 44.0702 102.745 44.3146C102.87 44.5589 102.931 44.8553 102.929 45.2038V47.9822H101.901V45.3629C101.901 45.0712 101.825 44.843 101.674 44.6782C101.524 44.5134 101.317 44.431 101.051 44.431C100.871 44.431 100.711 44.4708 100.571 44.5504C100.433 44.628 100.324 44.7407 100.245 44.8884C100.167 45.0362 100.128 45.2151 100.128 45.4254ZM106.154 43.6185V44.414H103.645V43.6185H106.154ZM104.264 42.5731H105.293V46.6697C105.293 46.8079 105.314 46.914 105.355 46.9879C105.399 47.0598 105.456 47.1091 105.526 47.1356C105.596 47.1621 105.674 47.1754 105.759 47.1754C105.823 47.1754 105.882 47.1706 105.935 47.1612C105.99 47.1517 106.032 47.1432 106.06 47.1356L106.233 47.9396C106.178 47.9585 106.1 47.9793 105.997 48.0021C105.897 48.0248 105.774 48.038 105.628 48.0418C105.371 48.0494 105.139 48.0106 104.932 47.9254C104.726 47.8382 104.562 47.7038 104.441 47.522C104.321 47.3401 104.263 47.1129 104.264 46.8401V42.5731ZM107.014 47.9822V43.6185H108.042V47.9822H107.014ZM107.531 42.9992C107.368 42.9992 107.228 42.9452 107.11 42.8373C106.993 42.7274 106.934 42.5958 106.934 42.4424C106.934 42.2871 106.993 42.1555 107.11 42.0475C107.228 41.9377 107.368 41.8827 107.531 41.8827C107.696 41.8827 107.836 41.9377 107.951 42.0475C108.069 42.1555 108.127 42.2871 108.127 42.4424C108.127 42.5958 108.069 42.7274 107.951 42.8373C107.836 42.9452 107.696 42.9992 107.531 42.9992ZM110.355 48.0702C110.079 48.0702 109.83 48.021 109.608 47.9225C109.389 47.8221 109.214 47.6744 109.085 47.4793C108.959 47.2843 108.895 47.0437 108.895 46.7577C108.895 46.5115 108.941 46.3079 109.032 46.147C109.122 45.986 109.246 45.8572 109.404 45.7606C109.561 45.664 109.738 45.5911 109.935 45.5418C110.134 45.4907 110.339 45.4538 110.551 45.431C110.807 45.4045 111.014 45.3809 111.174 45.36C111.333 45.3373 111.448 45.3032 111.52 45.2577C111.594 45.2104 111.631 45.1375 111.631 45.039V45.022C111.631 44.8079 111.568 44.6422 111.441 44.5248C111.314 44.4074 111.131 44.3487 110.892 44.3487C110.64 44.3487 110.441 44.4036 110.293 44.5134C110.147 44.6233 110.049 44.753 109.997 44.9026L109.037 44.7663C109.113 44.5011 109.238 44.2795 109.412 44.1015C109.586 43.9216 109.8 43.7871 110.051 43.6981C110.303 43.6072 110.582 43.5617 110.887 43.5617C111.097 43.5617 111.306 43.5863 111.514 43.6356C111.723 43.6848 111.913 43.7663 112.085 43.8799C112.258 43.9916 112.396 44.1441 112.5 44.3373C112.606 44.5305 112.659 44.772 112.659 45.0617V47.9822H111.671V47.3827H111.637C111.574 47.504 111.486 47.6176 111.372 47.7237C111.261 47.8278 111.12 47.9121 110.949 47.9765C110.781 48.039 110.583 48.0702 110.355 48.0702ZM110.622 47.3146C110.829 47.3146 111.008 47.2738 111.159 47.1924C111.311 47.1091 111.427 46.9992 111.509 46.8629C111.592 46.7265 111.634 46.5778 111.634 46.4168V45.9026C111.602 45.9291 111.547 45.9538 111.469 45.9765C111.393 45.9992 111.308 46.0191 111.213 46.0362C111.119 46.0532 111.025 46.0684 110.932 46.0816C110.839 46.0949 110.759 46.1062 110.691 46.1157C110.537 46.1365 110.4 46.1706 110.279 46.218C110.157 46.2653 110.062 46.3316 109.992 46.4168C109.922 46.5002 109.887 46.6081 109.887 46.7407C109.887 46.9301 109.956 47.0731 110.094 47.1697C110.232 47.2663 110.408 47.3146 110.622 47.3146ZM114.722 42.164V47.9822H113.693V42.164H114.722ZM119.228 44.772L118.291 44.8742C118.264 44.7795 118.218 44.6905 118.152 44.6072C118.087 44.5238 118 44.4566 117.89 44.4055C117.78 44.3543 117.646 44.3288 117.487 44.3288C117.273 44.3288 117.093 44.3752 116.947 44.468C116.803 44.5608 116.732 44.681 116.734 44.8288C116.732 44.9557 116.778 45.0589 116.873 45.1384C116.97 45.218 117.129 45.2833 117.35 45.3345L118.095 45.4935C118.508 45.5826 118.814 45.7237 119.015 45.9168C119.218 46.11 119.32 46.3629 119.322 46.6754C119.32 46.95 119.24 47.1924 119.081 47.4026C118.923 47.611 118.705 47.7738 118.424 47.8913C118.144 48.0087 117.822 48.0674 117.458 48.0674C116.924 48.0674 116.494 47.9557 116.169 47.7322C115.843 47.5068 115.649 47.1934 115.586 46.7918L116.589 46.6952C116.634 46.8922 116.731 47.0409 116.879 47.1413C117.027 47.2416 117.219 47.2918 117.456 47.2918C117.7 47.2918 117.896 47.2416 118.044 47.1413C118.193 47.0409 118.268 46.9168 118.268 46.7691C118.268 46.6441 118.22 46.5409 118.123 46.4595C118.028 46.378 117.881 46.3155 117.68 46.272L116.936 46.1157C116.517 46.0286 116.207 45.8818 116.007 45.6754C115.806 45.467 115.706 45.2038 115.708 44.8856C115.706 44.6166 115.779 44.3837 115.927 44.1867C116.077 43.9879 116.284 43.8345 116.549 43.7265C116.816 43.6166 117.124 43.5617 117.473 43.5617C117.984 43.5617 118.386 43.6706 118.68 43.8884C118.975 44.1062 119.158 44.4007 119.228 44.772Z" fill="black" fill-opacity="0.5"/>
<g clip-path="url(#clip0_6556_58425)">
<path d="M56.8966 15.947H57.4667C59.4462 15.9901 61.3933 16.7861 62.7918 18.1954C62.2755 18.7225 61.7483 19.2282 61.2427 19.7553C60.4574 19.0453 59.5107 18.4966 58.478 18.303C56.9503 17.9803 55.3044 18.2707 54.0242 19.1421C52.6257 20.0565 51.679 21.6056 51.4746 23.2623C51.2487 24.8975 51.7113 26.6188 52.7763 27.8882C53.7983 29.1254 55.3582 29.8999 56.9719 29.9537C58.478 30.0398 60.0486 29.5772 61.1459 28.5229C62.0065 27.7806 62.4046 26.6511 62.5337 25.5538C60.7479 25.5538 58.9621 25.5645 57.1763 25.5538V23.3376H64.696C65.0833 25.7151 64.5239 28.3938 62.7165 30.0936C61.5117 31.2984 59.8442 32.0085 58.1445 32.1483C56.4985 32.3097 54.7988 31.9977 53.3357 31.2016C51.5822 30.2657 50.1837 28.6843 49.4952 26.8232C48.8497 25.1127 48.8389 23.1763 49.4414 21.455C49.99 19.8844 51.0443 18.4966 52.3998 17.5284C53.7015 16.571 55.2829 16.0438 56.8966 15.947Z" fill="#73727A"/>
<path d="M100.035 16.5066H102.337V31.8688C101.574 31.8688 100.799 31.8795 100.035 31.858C100.046 26.748 100.035 21.6273 100.035 16.5066Z" fill="#73727A"/>
<path d="M69.8165 21.8313C71.2365 21.5623 72.7749 21.8635 73.9475 22.7134C75.0125 23.4665 75.7548 24.6498 75.9807 25.9408C76.2712 27.4361 75.9054 29.0713 74.9372 30.2546C73.8937 31.5779 72.1832 32.2879 70.5158 32.1803C68.9882 32.0942 67.5036 31.3304 66.5999 30.0825C65.5779 28.7055 65.3305 26.8121 65.8899 25.1985C66.4493 23.4665 68.0307 22.1432 69.8165 21.8313ZM70.1392 23.8753C69.5583 24.0259 69.0204 24.3594 68.6332 24.8327C67.5896 26.0806 67.6542 28.1138 68.8053 29.2757C69.4615 29.9427 70.4512 30.2546 71.3656 30.0718C72.2155 29.9212 72.9578 29.351 73.3666 28.5979C74.0766 27.3178 73.8722 25.5535 72.7857 24.553C72.0864 23.9075 71.0644 23.6386 70.1392 23.8753Z" fill="#73727A"/>
<path d="M81.2194 21.8323C82.8438 21.5203 84.6189 21.9722 85.8345 23.1125C87.8139 24.8875 88.0291 28.2117 86.3401 30.2557C85.3181 31.5466 83.6614 32.2566 82.0262 32.1813C80.4663 32.1383 78.928 31.3637 78.0028 30.0836C76.9593 28.6743 76.7334 26.7379 77.325 25.0919C77.9167 23.4137 79.4659 22.1335 81.2194 21.8323ZM81.5421 23.8763C80.9612 24.0269 80.4233 24.3604 80.036 24.823C79.0033 26.0494 79.0463 28.0503 80.1544 29.2229C80.8106 29.9222 81.8326 30.2664 82.7793 30.0728C83.6184 29.9114 84.3714 29.352 84.7802 28.599C85.4795 27.308 85.2751 25.5438 84.1778 24.5433C83.4785 23.8978 82.4565 23.6396 81.5421 23.8763Z" fill="#73727A"/>
<path d="M90.8887 22.4556C92.1258 21.6811 93.7718 21.4659 95.1058 22.1329C95.5253 22.3158 95.8696 22.6277 96.2031 22.9397C96.2138 22.6493 96.2031 22.348 96.2138 22.0468C96.9346 22.0576 97.6554 22.0468 98.3869 22.0576V31.546C98.3761 32.9768 98.0104 34.4936 96.9776 35.5371C95.848 36.6882 94.116 37.0432 92.5562 36.8066C90.8887 36.5591 89.4364 35.3435 88.7909 33.8051C89.4364 33.4931 90.1141 33.2457 90.7811 32.9553C91.1576 33.8374 91.9214 34.5904 92.8789 34.7626C93.8363 34.9347 94.9444 34.698 95.5683 33.9019C96.2353 33.0843 96.2353 31.9655 96.2031 30.9651C95.7082 31.4492 95.138 31.8795 94.4495 32.0408C92.9542 32.4604 91.3082 31.944 90.1572 30.9328C88.9953 29.9215 88.3068 28.3617 88.3714 26.8125C88.4036 25.059 89.3934 23.37 90.8887 22.4556ZM93.1156 23.8326C92.4593 23.9402 91.8461 24.306 91.4266 24.8116C90.4153 26.0165 90.4153 27.9421 91.4373 29.1255C92.0183 29.8247 92.9542 30.212 93.8579 30.1152C94.7077 30.0291 95.493 29.4912 95.9126 28.7489C96.6226 27.4903 96.5043 25.7798 95.5468 24.6825C94.9551 24.0047 94.0085 23.6713 93.1156 23.8326Z" fill="#73727A"/>
<path d="M105.104 23.0041C106.395 21.7993 108.385 21.3905 110.042 22.0252C111.612 22.6169 112.613 24.1122 113.118 25.6506C110.784 26.6188 108.46 27.5762 106.126 28.5444C106.448 29.1576 106.943 29.717 107.61 29.9429C108.546 30.2764 109.665 30.1581 110.45 29.5341C110.762 29.2975 111.01 28.9855 111.246 28.6843C111.838 29.0823 112.43 29.4696 113.022 29.8676C112.182 31.1263 110.773 32.0084 109.256 32.1483C107.578 32.3527 105.792 31.7072 104.706 30.3948C102.92 28.3293 103.092 24.8652 105.104 23.0041ZM106.255 24.9943C105.889 25.5215 105.738 26.1669 105.749 26.8017C107.309 26.1562 108.869 25.5107 110.429 24.8545C110.171 24.2521 109.547 23.8863 108.912 23.7895C107.89 23.6066 106.825 24.1552 106.255 24.9943Z" fill="#73727A"/>
</g>
<defs>
<linearGradient id="paint0_linear_6556_58425" x1="37.0616" y1="70.1939" x2="-12.4053" y2="13.6753" gradientUnits="userSpaceOnUse">
<stop stop-color="#FFF6EA"/>
<stop offset="0.25" stop-color="#FFC85C"/>
<stop offset="0.5" stop-color="#FFDEAB"/>
<stop offset="0.87" stop-color="#FFB800"/>
<stop offset="1" stop-color="#FFD7A7"/>
</linearGradient>
<linearGradient id="paint1_linear_6556_58425" x1="164.943" y1="59.3402" x2="93.8446" y2="35.1278" gradientUnits="userSpaceOnUse">
<stop stop-color="#FFF6EA"/>
<stop offset="0.25" stop-color="#FFC85C"/>
<stop offset="0.5" stop-color="#FFDEAB"/>
<stop offset="0.87" stop-color="#FFB800"/>
<stop offset="1" stop-color="#FFD7A7"/>
</linearGradient>
<clipPath id="clip0_6556_58425">
<rect width="64.1166" height="20.9277" fill="white" transform="translate(49 15.9451)"/>
</clipPath>
</defs>
</svg>
