<svg xmlns="http://www.w3.org/2000/svg" xmlns:xlink="http://www.w3.org/1999/xlink" viewBox="0 0 1440 411" width="1440" height="411" preserveAspectRatio="xMidYMid meet" style="width: 100%; height: 100%; transform: translate3d(0px, 0px, 0px); content-visibility: visible;"><defs><clipPath id="__lottie_element_2"><rect width="1440" height="411" x="0" y="0"></rect></clipPath><clipPath id="__lottie_element_4"><path d="M0,0 L1440,0 L1440,943 L0,943z"></path></clipPath><g id="__lottie_element_7"><g transform="matrix(1,0,0,1,0,-126)" opacity="1" style="display: block;"><g opacity="1" transform="matrix(1,0,0,1,720,672)"><path fill="rgb(211,237,209)" fill-opacity="1" d=" M1136.45703125,238.8679962158203 C1136.45703125,-42.7239990234375 627.5260009765625,-271 -0.27300000190734863,-271 C-628.072021484375,-271 -1137.0030517578125,-42.7239990234375 -1137.0030517578125,238.8679962158203 C-1137.0030517578125,520.4600219726562 -628.072021484375,748.7360229492188 -0.27300000190734863,748.7360229492188 C627.5260009765625,748.7360229492188 1136.45703125,520.4600219726562 1136.45703125,238.8679962158203z"></path></g></g></g><clipPath id="__lottie_element_11"><path d="M0,0 L1440,0 L1440,943 L0,943z"></path></clipPath><g id="__lottie_element_14"><g transform="matrix(1,0,0,1,0,-126)" opacity="1" style="display: block;"><g opacity="1" transform="matrix(1,0,0,1,720,672)"><path fill="rgb(211,237,209)" fill-opacity="1" d=" M1136.45703125,238.8679962158203 C1136.45703125,-42.7239990234375 627.5260009765625,-271 -0.27300000190734863,-271 C-628.072021484375,-271 -1137.0030517578125,-42.7239990234375 -1137.0030517578125,238.8679962158203 C-1137.0030517578125,520.4600219726562 -628.072021484375,748.7360229492188 -0.27300000190734863,748.7360229492188 C627.5260009765625,748.7360229492188 1136.45703125,520.4600219726562 1136.45703125,238.8679962158203z"></path></g></g></g><linearGradient id="__lottie_element_20" spreadMethod="pad" gradientUnits="userSpaceOnUse" x1="0" y1="-166" x2="-2" y2="-270"><stop offset="0%" stop-color="rgb(107,92,224)" stop-opacity="0"></stop><stop offset="50%" stop-color="rgb(168,159,237)" stop-opacity="0.5"></stop><stop offset="100%" stop-color="rgb(228,225,250)" stop-opacity="1"></stop></linearGradient><linearGradient id="__lottie_element_24" spreadMethod="pad" gradientUnits="userSpaceOnUse" x1="0" y1="17.75" x2="0" y2="-17.5"><stop offset="0%" stop-color="rgb(125,112,227)"></stop><stop offset="50%" stop-color="rgb(138,126,229)"></stop><stop offset="100%" stop-color="rgb(151,141,231)"></stop></linearGradient><linearGradient id="__lottie_element_37" spreadMethod="pad" gradientUnits="userSpaceOnUse" x1="25.125" y1="5.875" x2="-25.5" y2="6.25"><stop offset="0%" stop-color="rgb(114,98,230)"></stop><stop offset="50%" stop-color="rgb(117,102,234)"></stop><stop offset="100%" stop-color="rgb(120,106,238)"></stop></linearGradient><linearGradient id="__lottie_element_41" spreadMethod="pad" gradientUnits="userSpaceOnUse" x1="25.125" y1="5.875" x2="-25.5" y2="6.25"><stop offset="0%" stop-color="rgb(114,98,230)"></stop><stop offset="50%" stop-color="rgb(117,102,234)"></stop><stop offset="100%" stop-color="rgb(120,106,238)"></stop></linearGradient><linearGradient id="__lottie_element_45" spreadMethod="pad" gradientUnits="userSpaceOnUse" x1="25.125" y1="5.875" x2="-25.5" y2="6.25"><stop offset="0%" stop-color="rgb(114,98,230)"></stop><stop offset="50%" stop-color="rgb(117,102,234)"></stop><stop offset="100%" stop-color="rgb(120,106,238)"></stop></linearGradient><linearGradient id="__lottie_element_49" spreadMethod="pad" gradientUnits="userSpaceOnUse" x1="25.125" y1="5.875" x2="-25.5" y2="6.25"><stop offset="0%" stop-color="rgb(114,98,230)"></stop><stop offset="50%" stop-color="rgb(117,102,234)"></stop><stop offset="100%" stop-color="rgb(120,106,238)"></stop></linearGradient><clipPath id="__lottie_element_54"><path d="M0,0 L1500,0 L1500,1500 L0,1500z"></path></clipPath><clipPath id="__lottie_element_58"><path d="M0,0 L1500,0 L1500,1500 L0,1500z"></path></clipPath><filter id="__lottie_element_61" filterUnits="objectBoundingBox" x="0%" y="0%" width="100%" height="100%"><feComponentTransfer in="SourceGraphic"><feFuncA type="table" tableValues="1.0 0.0"></feFuncA></feComponentTransfer></filter><mask id="__lottie_element_14_2" mask-type="alpha"><g filter="url(#__lottie_element_61)"><rect width="1440" height="411" x="0" y="0" fill="#ffffff" opacity="0"></rect><use xlink:href="#__lottie_element_14"></use></g></mask><filter id="__lottie_element_62" filterUnits="objectBoundingBox" x="0%" y="0%" width="100%" height="100%"><feComponentTransfer in="SourceGraphic"><feFuncA type="table" tableValues="1.0 0.0"></feFuncA></feComponentTransfer></filter><mask id="__lottie_element_7_2" mask-type="alpha"><g filter="url(#__lottie_element_62)"><rect width="1440" height="411" x="0" y="0" fill="#ffffff" opacity="0"></rect><use xlink:href="#__lottie_element_7"></use></g></mask><clipPath id="__lottie_element_118"><path d="M0,0 L1500,0 L1500,1500 L0,1500z"></path></clipPath><clipPath id="__lottie_element_122"><path d="M0,0 L1500,0 L1500,1500 L0,1500z"></path></clipPath></defs><g clip-path="url(#__lottie_element_2)"><g mask="url(#__lottie_element_7_2)" style="display: block;"><g clip-path="url(#__lottie_element_4)" transform="matrix(1,0,0,1,0,-126)" opacity="0.2"><g transform="matrix(0.7599999904632568,0,0,0.7599999904632568,-15.45999813079834,515.699462890625)" opacity="1" style="display: block;"><g opacity="1" transform="matrix(1,0,0,1,0,0)"><path stroke-linecap="round" stroke-linejoin="miter" fill-opacity="0" stroke-miterlimit="4" stroke="rgb(255,255,255)" stroke-opacity="1" stroke-width="8" d=" M228.5,-142.25 C228.5,-142.25 228.5,-116.08300018310547 228.5,-103 C228.5,-88.83300018310547 228.5,-60.5 228.5,-60.5"></path></g></g><g transform="matrix(0.7599999904632568,0,0,0.7599999904632568,-16.78999900817871,515.5094604492188)" opacity="1" style="display: block;"><g opacity="1" transform="matrix(1,0,0,1,0,0)"><path stroke-linecap="round" stroke-linejoin="miter" fill-opacity="0" stroke-miterlimit="4" stroke="rgb(255,255,255)" stroke-opacity="1" stroke-width="8" d=" M229,-105.75 C229,-105.75 199.25,-117.75 199.25,-117.75"></path></g></g><g transform="matrix(0.7599999904632568,0,0,0.7599999904632568,-15.45999813079834,515.699462890625)" opacity="1" style="display: block;"><g opacity="1" transform="matrix(1,0,0,1,0,0)"><path stroke-linecap="round" stroke-linejoin="miter" fill-opacity="0" stroke-miterlimit="4" stroke="rgb(255,255,255)" stroke-opacity="1" stroke-width="8" d=" M230.5,-86.25 C230.5,-86.25 245.25,-91.25 245.25,-91.25"></path></g></g><g transform="matrix(1,0,0,1,1043.5,552.875)" opacity="1" style="display: block;"><g opacity="1" transform="matrix(1,0,0,1,0,0)"><path stroke-linecap="round" stroke-linejoin="miter" fill-opacity="0" stroke-miterlimit="4" stroke="rgb(255,255,255)" stroke-opacity="1" stroke-width="8" d=" M211.5121307373047,-139.04684448242188 C222.05587768554688,-129.48338317871094 223.91407775878906,-118.90093231201172 226.3995819091797,-104.68768310546875 C229.43292236328125,-91.57799530029297 228.5,-65.7084732055664 228.5,-60.5"></path></g></g><g transform="matrix(0.9853176474571228,-0.17073117196559906,0.17073117196559906,0.9853176474571228,1056.10986328125,560.462158203125)" opacity="1" style="display: block;"><g opacity="1" transform="matrix(1,0,0,1,0,0)"><path stroke-linecap="round" stroke-linejoin="miter" fill-opacity="0" stroke-miterlimit="4" stroke="rgb(255,255,255)" stroke-opacity="1" stroke-width="8" d=" M230.5,-86.25 C230.5,-86.25 245.25,-91.25 245.25,-91.25"></path></g></g><g transform="matrix(-1,0,0,1,1494.6949462890625,531.75)" opacity="1" style="display: block;"><g opacity="1" transform="matrix(1,0,0,1,0,0)"><path stroke-linecap="round" stroke-linejoin="miter" fill-opacity="0" stroke-miterlimit="4" stroke="rgb(255,255,255)" stroke-opacity="1" stroke-width="8" d=" M230.5,-86.25 C230.5,-86.25 245.25,-91.25 245.25,-91.25"></path></g></g></g></g><g mask="url(#__lottie_element_14_2)" style="display: block;"><g clip-path="url(#__lottie_element_11)" transform="matrix(1,0,0,1,0,-126)" opacity="1"><g transform="matrix(1,0,0,1,720,471.5)" opacity="1" style="display: block;"><g opacity="1" transform="matrix(1,0,0,1,0,0)"><path stroke-linecap="round" stroke-linejoin="miter" fill-opacity="0" stroke-miterlimit="4" stroke="rgb(255,255,255)" stroke-opacity="1" stroke-width="8" d=" M228.5,-142.25 C228.5,-142.25 228.5,-116.08300018310547 228.5,-103 C228.5,-88.83300018310547 228.5,-60.5 228.5,-60.5"></path></g></g><g transform="matrix(1,0,0,1,718.25,471.25)" opacity="1" style="display: block;"><g opacity="1" transform="matrix(1,0,0,1,0,0)"><path stroke-linecap="round" stroke-linejoin="miter" fill-opacity="0" stroke-miterlimit="4" stroke="rgb(255,255,255)" stroke-opacity="1" stroke-width="8" d=" M229,-105.75 C229,-105.75 199.25,-117.75 199.25,-117.75"></path></g></g><g transform="matrix(1,0,0,1,720,471.5)" opacity="1" style="display: block;"><g opacity="1" transform="matrix(1,0,0,1,0,0)"><path stroke-linecap="round" stroke-linejoin="miter" fill-opacity="0" stroke-miterlimit="4" stroke="rgb(255,255,255)" stroke-opacity="1" stroke-width="8" d=" M230.5,-86.25 C230.5,-86.25 245.25,-91.25 245.25,-91.25"></path></g></g><g transform="matrix(1,0,0,1,273,506.5)" opacity="1" style="display: block;"><g opacity="1" transform="matrix(1,0,0,1,0,0)"><path stroke-linecap="round" stroke-linejoin="miter" fill-opacity="0" stroke-miterlimit="4" stroke="rgb(255,255,255)" stroke-opacity="1" stroke-width="8" d=" M211.5121307373047,-139.04684448242188 C222.05587768554688,-129.48338317871094 223.7678680419922,-118.36483764648438 226.2533721923828,-104.15158081054688 C229.28671264648438,-91.04190063476562 228.5,-65.7084732055664 228.5,-60.5"></path></g></g><g transform="matrix(0.9853176474571228,-0.17073117196559906,0.17073117196559906,0.9853176474571228,285.60986328125,514.087158203125)" opacity="1" style="display: block;"><g opacity="1" transform="matrix(1,0,0,1,0,0)"><path stroke-linecap="round" stroke-linejoin="miter" fill-opacity="0" stroke-miterlimit="4" stroke="rgb(255,255,255)" stroke-opacity="1" stroke-width="8" d=" M230.5,-86.25 C230.5,-86.25 245.25,-91.25 245.25,-91.25"></path></g></g></g></g><g transform="matrix(1,0,0,1,0,-126)" opacity="1" style="display: block;"><g opacity="1" transform="matrix(1,0,0,1,720,672)"><path fill="url(#__lottie_element_20)" fill-opacity="1" d=" M1136.45703125,238.8679962158203 C1136.45703125,-42.7239990234375 627.5260009765625,-271 -0.27300000190734863,-271 C-628.072021484375,-271 -1137.0030517578125,-42.7239990234375 -1137.0030517578125,238.8679962158203 C-1137.0030517578125,520.4600219726562 -628.072021484375,748.7360229492188 -0.27300000190734863,748.7360229492188 C627.5260009765625,748.7360229492188 1136.45703125,520.4600219726562 1136.45703125,238.8679962158203z"></path></g></g><g transform="matrix(1,0,0,1,617,302)" opacity="1" style="display: block;"><g opacity="1" transform="matrix(1,0,0,1,102.68000030517578,18.17300033569336)"><path fill="url(#__lottie_element_24)" fill-opacity="1" d=" M102.68000030517578,0 C102.68000030517578,-10.036999702453613 56.70899963378906,-18.17300033569336 0,-18.17300033569336 C-56.70899963378906,-18.17300033569336 -102.68000030517578,-10.036999702453613 -102.68000030517578,0 C-102.68000030517578,10.036999702453613 -56.70899963378906,18.17300033569336 0,18.17300033569336 C56.70899963378906,18.17300033569336 102.68000030517578,10.036999702453613 102.68000030517578,0z"></path></g></g><g transform="matrix(-0.9998098015785217,-0.019503189250826836,-0.019503189250826836,0.9998098015785217,785.2508544921875,152.53050231933594)" opacity="1" style="display: block;"><g opacity="1" transform="matrix(1,0,0,1,13.640999794006348,14.444999694824219)"><path fill="rgb(255,255,255)" fill-opacity="1" d=" M11.734999656677246,5.091000080108643 C11.734999656677246,5.091000080108643 11.734999656677246,5.091000080108643 11.734999656677246,5.091000080108643 C6.614999771118164,10.211000442504883 -1.680999994277954,10.211000442504883 -6.801000118255615,5.091000080108643 C-10.944000244140625,0.9470000267028809 -11.734999656677246,-5.275000095367432 -9.17300033569336,-10.211999893188477"></path></g><g opacity="1" transform="matrix(1,0,0,1,13.640999794006348,13.458000183105469)"><path stroke-linecap="butt" stroke-linejoin="miter" fill-opacity="0" stroke-miterlimit="10" stroke="rgb(26,18,84)" stroke-opacity="1" stroke-width="5" d=" M11.734999656677246,6.078000068664551 C6.614999771118164,11.197999954223633 -1.680999994277954,11.197999954223633 -6.801000118255615,6.078000068664551 C-10.944000244140625,1.934000015258789 -11.734999656677246,-4.288000106811523 -9.17300033569336,-9.225000381469727 C-8.14900016784668,-11.197999954223633 -5.5269999504089355,-11.184000015258789 -3.9549999237060547,-9.612000465393066 C-3.9549999237060547,-9.612000465393066 11.734999656677246,6.078000068664551 11.734999656677246,6.078000068664551z M11.734999656677246,6.078000068664551 C11.734999656677246,6.078000068664551 11.734999656677246,6.078000068664551 11.734999656677246,6.078000068664551z"></path></g></g><g transform="matrix(0.9998098015785217,-0.019503189250826836,0.019503189250826836,0.9998098015785217,655.3128662109375,152.53050231933594)" opacity="1" style="display: block;"><g opacity="1" transform="matrix(1,0,0,1,13.640999794006348,14.444999694824219)"><path fill="rgb(255,255,255)" fill-opacity="1" d=" M11.734999656677246,5.091000080108643 C11.734999656677246,5.091000080108643 11.734999656677246,5.091000080108643 11.734999656677246,5.091000080108643 C6.614999771118164,10.211000442504883 -1.680999994277954,10.211000442504883 -6.801000118255615,5.091000080108643 C-10.944000244140625,0.9470000267028809 -11.734999656677246,-5.275000095367432 -9.17300033569336,-10.211999893188477"></path></g><g opacity="1" transform="matrix(1,0,0,1,13.640999794006348,13.458000183105469)"><path stroke-linecap="butt" stroke-linejoin="miter" fill-opacity="0" stroke-miterlimit="10" stroke="rgb(26,18,84)" stroke-opacity="1" stroke-width="5" d=" M11.734999656677246,6.078000068664551 C6.614999771118164,11.197999954223633 -1.680999994277954,11.197999954223633 -6.801000118255615,6.078000068664551 C-10.944000244140625,1.934000015258789 -11.734999656677246,-4.288000106811523 -9.17300033569336,-9.225000381469727 C-8.14900016784668,-11.197999954223633 -5.5269999504089355,-11.184000015258789 -3.9549999237060547,-9.612000465393066 C-3.9549999237060547,-9.612000465393066 11.734999656677246,6.078000068664551 11.734999656677246,6.078000068664551z M11.734999656677246,6.078000068664551 C11.734999656677246,6.078000068664551 11.734999656677246,6.078000068664551 11.734999656677246,6.078000068664551z"></path></g></g><g transform="matrix(1,0,0,1,645,149)" opacity="1" style="display: block;"><g opacity="1" transform="matrix(1,0,0,1,75.88800048828125,45.98781967163086)"><path fill="rgb(255,255,255)" fill-opacity="1" d=" M0,18.20800018310547 C9.821999549865723,18.20800018310547 17.753999710083008,11.506999969482422 17.753999710083008,1.4509999752044678 C17.753999710083008,-8.604999542236328 9.821999549865723,-18.20800018310547 0,-18.20800018310547 C-9.821999549865723,-18.20800018310547 -17.753999710083008,-8.604999542236328 -17.753999710083008,1.4509999752044678 C-17.753999710083008,11.506999969482422 -9.821999549865723,18.20800018310547 0,18.20800018310547z"></path><path stroke-linecap="butt" stroke-linejoin="miter" fill-opacity="0" stroke-miterlimit="10" stroke="rgb(26,18,84)" stroke-opacity="1" stroke-width="5" d=" M0,18.20800018310547 C9.821999549865723,18.20800018310547 17.753999710083008,11.506999969482422 17.753999710083008,1.4509999752044678 C17.753999710083008,-8.604999542236328 9.821999549865723,-18.20800018310547 0,-18.20800018310547 C-9.821999549865723,-18.20800018310547 -17.753999710083008,-8.604999542236328 -17.753999710083008,1.4509999752044678 C-17.753999710083008,11.506999969482422 -9.821999549865723,18.20800018310547 0,18.20800018310547z"></path></g><g opacity="1" transform="matrix(1,0,0,1,22.246000289916992,17.44499969482422)"><path fill="rgb(255,255,255)" fill-opacity="1" d=" M12.984999656677246,10.590999603271484 C12.984999656677246,10.590999603271484 12.984999656677246,10.590999603271484 12.984999656677246,10.590999603271484 C7.864999771118164,15.711000442504883 -0.4309999942779541,15.711000442504883 -5.551000118255615,10.590999603271484"></path></g><g opacity="1" transform="matrix(1,0,0,1,23.246000289916992,18.95800018310547)"><path stroke-linecap="butt" stroke-linejoin="miter" fill-opacity="0" stroke-miterlimit="10" stroke="rgb(26,18,84)" stroke-opacity="1" stroke-width="5" d=" M12.984999656677246,11.57800006866455 C12.984999656677246,11.57800006866455 12.984999656677246,11.57800006866455 12.984999656677246,11.57800006866455z"></path></g><g opacity="1" transform="matrix(1,0,0,1,76.06500244140625,146.24899291992188)"><path fill="rgb(26,18,84)" fill-opacity="1" d=" M-27.29199981689453,-15.413000106811523 C-27.29199981689453,-15.413000106811523 -47.29600143432617,0.3580000102519989 -47.29600143432617,0.3580000102519989 C-47.29600143432617,0.3580000102519989 -34.08599853515625,15.411999702453613 2.132999897003174,13.125 C38.35200119018555,10.838000297546387 47.29600143432617,3.9079999923706055 47.29600143432617,3.9079999923706055 C47.29600143432617,3.9079999923706055 27.770000457763672,-15.413000106811523 27.770000457763672,-15.413000106811523 C27.770000457763672,-15.413000106811523 -27.29199981689453,-15.413000106811523 -27.29199981689453,-15.413000106811523z"></path></g><g opacity="1" transform="matrix(1,0,0,1,100.37699890136719,155.03599548339844)"><path fill="rgb(26,18,84)" fill-opacity="1" d=" M47.52000045776367,8.295000076293945 C50.86600112915039,-6.998000144958496 37.27899932861328,-20.618000030517578 21.986000061035156,-17.340999603271484 C21.986000061035156,-17.340999603271484 -49.62300109863281,-2.9110000133514404 -49.62300109863281,-2.9110000133514404 C-49.62300109863281,-2.9110000133514404 -30.48200035095215,14.201000213623047 -30.48200035095215,14.201000213623047 C-30.48200035095215,14.201000213623047 31.64699935913086,19.902000427246094 31.64699935913086,19.902000427246094 C39.12300109863281,20.618000030517578 45.95000076293945,15.635000228881836 47.52000045776367,8.295000076293945z"></path></g><g opacity="1" transform="matrix(1,0,0,1,86.02899932861328,165.27000427246094)"><path fill="rgb(54,41,130)" fill-opacity="1" d=" M-10.967000007629395,-9.097999572753906 C-10.967000007629395,-9.097999572753906 13.645000457763672,-5.275000095367432 13.645000457763672,-5.275000095367432 C16.75200080871582,-4.796999931335449 18.69700050354004,-1.621999979019165 17.742000579833984,1.3819999694824219 C17.742000579833984,1.3819999694824219 16.375999450683594,5.546000003814697 16.375999450683594,5.546000003814697 C15.692999839782715,7.629000186920166 13.781999588012695,9.062999725341797 11.597000122070312,9.097999572753906 C11.597000122070312,9.097999572753906 -18.69700050354004,9.097999572753906 -18.69700050354004,9.097999572753906 C-18.69700050354004,9.097999572753906 -10.967000007629395,-9.097999572753906 -10.967000007629395,-9.097999572753906z"></path></g><g opacity="1" transform="matrix(1,0,0,1,39.250999450683594,154.06100463867188)"><path fill="rgb(54,41,130)" fill-opacity="1" d=" M-37.82899856567383,7.270999908447266 C-39.707000732421875,-8.26099967956543 -24.892000198364258,-20.549999237060547 -9.973999977111816,-15.83899974822998 C-9.973999977111816,-15.83899974822998 36.65700149536133,-1.0920000076293945 36.65700149536133,-1.0920000076293945 C36.65700149536133,-1.0920000076293945 39.250999450683594,20.551000595092773 39.250999450683594,20.551000595092773 C39.250999450683594,20.551000595092773 -23.150999069213867,20.34600067138672 -23.150999069213867,20.34600067138672 C-30.62700080871582,20.312000274658203 -36.90700149536133,14.711999893188477 -37.82899856567383,7.270999908447266z"></path></g><g opacity="1" transform="matrix(1,0,0,1,75.75800323486328,78.93699645996094)"><path fill="rgb(250,199,10)" fill-opacity="1" d=" M60.13100051879883,-52.00997543334961 C59.96099853515625,-54.194976806640625 57.98099899291992,-55.764976501464844 55.79600143432617,-55.764976501464844 C55.79600143432617,-55.764976501464844 43.40399932861328,-55.764976501464844 43.40399932861328,-55.764976501464844 C41.28799819946289,-55.764976501464844 39.978450775146484,-54.107826232910156 39.568450927734375,-52.0598258972168 C35.13182830810547,-30.194976806640625 27.949230194091797,-18.641813278198242 20.070844650268555,-10.332608222961426 C14.200478553771973,-4.888901710510254 8.458558082580566,-2.839526653289795 0.23124106228351593,-2.775728702545166 C-7.867486953735352,-2.8030261993408203 -13.728056907653809,-5.168173313140869 -19.918663024902344,-10.518789291381836 C-28.66142463684082,-19.63477897644043 -34.44194793701172,-30.75351905822754 -39.16802978515625,-51.8736457824707 C-39.544029235839844,-53.95564270019531 -41.012699127197266,-55.454673767089844 -43.128700256347656,-55.454673767089844 C-43.128700256347656,-55.454673767089844 -55.48569869995117,-55.454673767089844 -55.48569869995117,-55.454673767089844 C-57.67070007324219,-55.454673767089844 -59.64970016479492,-53.85067367553711 -59.82069778442383,-51.69967269897461 C-60.742698669433594,-38.932674407958984 -57.09745788574219,-4.393631935119629 -31.524999618530273,18.041000366210938 C-31.490999221801758,18.075000762939453 -31.457000732421875,18.110000610351562 -31.42300033569336,18.110000610351562 C-26.405000686645508,21.694000244140625 -25.448999404907227,28.009000778198242 -26.91699981689453,34.016998291015625 C-26.91699981689453,34.016998291015625 -29.409000396728516,49.99300003051758 -29.409000396728516,49.99300003051758 C-29.648000717163086,52.48500061035156 -27.83799934387207,54.737998962402344 -25.34600067138672,55.01100158691406 C-19.0310001373291,55.72800064086914 -7.425000190734863,56.81999969482422 -0.017000000923871994,56.172000885009766 C7.390999794006348,56.81999969482422 18.96299934387207,55.72800064086914 25.312000274658203,55.01100158691406 C27.804000854492188,54.737998962402344 29.613000869750977,52.48500061035156 29.374000549316406,49.99300003051758 C29.374000549316406,49.99300003051758 26.881999969482422,34.016998291015625 26.881999969482422,34.016998291015625 C25.448999404907227,28.009000778198242 26.3700008392334,21.694000244140625 31.38800048828125,18.110000610351562 C31.42300033569336,18.076000213623047 31.457000732421875,18.075000762939453 31.490999221801758,18.041000366210938 C56.78318786621094,-2.6303844451904297 61.053001403808594,-39.20897674560547 60.13100051879883,-52.00997543334961z"></path><path stroke-linecap="butt" stroke-linejoin="miter" fill-opacity="0" stroke-miterlimit="10" stroke="rgb(26,18,84)" stroke-opacity="1" stroke-width="5" d=" M60.13100051879883,-52.00997543334961 C59.96099853515625,-54.194976806640625 57.98099899291992,-55.764976501464844 55.79600143432617,-55.764976501464844 C55.79600143432617,-55.764976501464844 43.40399932861328,-55.764976501464844 43.40399932861328,-55.764976501464844 C41.28799819946289,-55.764976501464844 39.978450775146484,-54.107826232910156 39.568450927734375,-52.0598258972168 C35.13182830810547,-30.194976806640625 27.949230194091797,-18.641813278198242 20.070844650268555,-10.332608222961426 C14.200478553771973,-4.888901710510254 8.458558082580566,-2.839526653289795 0.23124106228351593,-2.775728702545166 C-7.867486953735352,-2.8030261993408203 -13.728056907653809,-5.168173313140869 -19.918663024902344,-10.518789291381836 C-28.66142463684082,-19.63477897644043 -34.44194793701172,-30.75351905822754 -39.16802978515625,-51.8736457824707 C-39.544029235839844,-53.95564270019531 -41.012699127197266,-55.454673767089844 -43.128700256347656,-55.454673767089844 C-43.128700256347656,-55.454673767089844 -55.48569869995117,-55.454673767089844 -55.48569869995117,-55.454673767089844 C-57.67070007324219,-55.454673767089844 -59.64970016479492,-53.85067367553711 -59.82069778442383,-51.69967269897461 C-60.742698669433594,-38.932674407958984 -57.09745788574219,-4.393631935119629 -31.524999618530273,18.041000366210938 C-31.490999221801758,18.075000762939453 -31.457000732421875,18.110000610351562 -31.42300033569336,18.110000610351562 C-26.405000686645508,21.694000244140625 -25.448999404907227,28.009000778198242 -26.91699981689453,34.016998291015625 C-26.91699981689453,34.016998291015625 -29.409000396728516,49.99300003051758 -29.409000396728516,49.99300003051758 C-29.648000717163086,52.48500061035156 -27.83799934387207,54.737998962402344 -25.34600067138672,55.01100158691406 C-19.0310001373291,55.72800064086914 -7.425000190734863,56.81999969482422 -0.017000000923871994,56.172000885009766 C7.390999794006348,56.81999969482422 18.96299934387207,55.72800064086914 25.312000274658203,55.01100158691406 C27.804000854492188,54.737998962402344 29.613000869750977,52.48500061035156 29.374000549316406,49.99300003051758 C29.374000549316406,49.99300003051758 26.881999969482422,34.016998291015625 26.881999969482422,34.016998291015625 C25.448999404907227,28.009000778198242 26.3700008392334,21.694000244140625 31.38800048828125,18.110000610351562 C31.42300033569336,18.076000213623047 31.457000732421875,18.075000762939453 31.490999221801758,18.041000366210938 C56.78318786621094,-2.6303844451904297 61.053001403808594,-39.20897674560547 60.13100051879883,-52.00997543334961z"></path></g></g><g transform="matrix(1,0,0,1,964.5012817382812,144)" opacity="1" style="display: block;"><g opacity="1" transform="matrix(1,0,0,1,26.624000549316406,16)"><path fill="url(#__lottie_element_37)" fill-opacity="1" d=" M26.624000549316406,5.422999858856201 C26.542999267578125,5.008999824523926 26.48900032043457,4.593999862670898 26.354000091552734,4.179999828338623 C25.302000045776367,0.36800000071525574 22.875,-2.006999969482422 19.152999877929688,-2.9739999771118164 C19.01799964904785,-3.002000093460083 18.882999420166016,-3.0290000438690186 18.802000045776367,-3.056999921798706 C18.3700008392334,-9.32699966430664 15.484999656677246,-13.77400016784668 9.52400016784668,-15.458999633789062 C3.6710000038146973,-17.115999221801758 -0.9950000047683716,-14.878999710083008 -4.420000076293945,-9.906999588012695 C-5.499000072479248,-10.265999794006348 -6.551000118255615,-10.736000061035156 -7.6570000648498535,-10.984999656677246 C-12.538999557495117,-12.03499984741211 -17.50200080871582,-8.63700008392334 -18.5,-3.609999895095825 C-18.58099937438965,-3.2230000495910645 -18.687999725341797,-3.056999921798706 -19.093000411987305,-2.9739999771118164 C-23.597000122070312,-2.062999963760376 -26.780000686645508,2.134999990463257 -26.618000030517578,6.830999851226807 C-26.45599937438965,11.387999534606934 -22.868999481201172,15.310999870300293 -18.364999771118164,15.890999794006348 C-17.9060001373291,15.946000099182129 -17.42099952697754,15.973999977111816 -16.961999893188477,15.973999977111816 C-15.748000144958496,15.973999977111816 -14.53499984741211,15.973999977111816 -13.347999572753906,15.973999977111816 C-9.706999778747559,15.973999977111816 -6.039000034332275,15.973999977111816 -2.3980000019073486,15.973999977111816 C4.020999908447266,15.973999977111816 10.468000411987305,15.972999572753906 16.886999130249023,16.000999450683594 C18.802000045776367,16.000999450683594 20.555999755859375,15.47700023651123 22.038999557495117,14.538000106811523 C24.493000030517578,13.019000053405762 26.165000915527344,10.449999809265137 26.48900032043457,7.659999847412109 C26.48900032043457,7.548999786376953 26.542999267578125,7.4670000076293945 26.56999969482422,7.355999946594238 C26.624000549316406,6.7210001945495605 26.624000549316406,6.085999965667725 26.624000549316406,5.422999858856201z"></path></g></g><g transform="matrix(1.5399999618530273,0,0,1.5399999618530273,1025.646728515625,47.36000061035156)" opacity="1" style="display: block;"><g opacity="1" transform="matrix(1,0,0,1,26.624000549316406,16)"><path fill="url(#__lottie_element_41)" fill-opacity="1" d=" M26.624000549316406,5.422999858856201 C26.542999267578125,5.008999824523926 26.48900032043457,4.593999862670898 26.354000091552734,4.179999828338623 C25.302000045776367,0.36800000071525574 22.875,-2.006999969482422 19.152999877929688,-2.9739999771118164 C19.01799964904785,-3.002000093460083 18.882999420166016,-3.0290000438690186 18.802000045776367,-3.056999921798706 C18.3700008392334,-9.32699966430664 15.484999656677246,-13.77400016784668 9.52400016784668,-15.458999633789062 C3.6710000038146973,-17.115999221801758 -0.9950000047683716,-14.878999710083008 -4.420000076293945,-9.906999588012695 C-5.499000072479248,-10.265999794006348 -6.551000118255615,-10.736000061035156 -7.6570000648498535,-10.984999656677246 C-12.538999557495117,-12.03499984741211 -17.50200080871582,-8.63700008392334 -18.5,-3.609999895095825 C-18.58099937438965,-3.2230000495910645 -18.687999725341797,-3.056999921798706 -19.093000411987305,-2.9739999771118164 C-23.597000122070312,-2.062999963760376 -26.780000686645508,2.134999990463257 -26.618000030517578,6.830999851226807 C-26.45599937438965,11.387999534606934 -22.868999481201172,15.310999870300293 -18.364999771118164,15.890999794006348 C-17.9060001373291,15.946000099182129 -17.42099952697754,15.973999977111816 -16.961999893188477,15.973999977111816 C-15.748000144958496,15.973999977111816 -14.53499984741211,15.973999977111816 -13.347999572753906,15.973999977111816 C-9.706999778747559,15.973999977111816 -6.039000034332275,15.973999977111816 -2.3980000019073486,15.973999977111816 C4.020999908447266,15.973999977111816 10.468000411987305,15.972999572753906 16.886999130249023,16.000999450683594 C18.802000045776367,16.000999450683594 20.555999755859375,15.47700023651123 22.038999557495117,14.538000106811523 C24.493000030517578,13.019000053405762 26.165000915527344,10.449999809265137 26.48900032043457,7.659999847412109 C26.48900032043457,7.548999786376953 26.542999267578125,7.4670000076293945 26.56999969482422,7.355999946594238 C26.624000549316406,6.7210001945495605 26.624000549316406,6.085999965667725 26.624000549316406,5.422999858856201z"></path></g></g><g transform="matrix(1.409999966621399,0,0,1.409999966621399,330.7587585449219,43.44000244140625)" opacity="1" style="display: block;"><g opacity="1" transform="matrix(1,0,0,1,26.624000549316406,16)"><path fill="url(#__lottie_element_45)" fill-opacity="1" d=" M26.624000549316406,5.422999858856201 C26.542999267578125,5.008999824523926 26.48900032043457,4.593999862670898 26.354000091552734,4.179999828338623 C25.302000045776367,0.36800000071525574 22.875,-2.006999969482422 19.152999877929688,-2.9739999771118164 C19.01799964904785,-3.002000093460083 18.882999420166016,-3.0290000438690186 18.802000045776367,-3.056999921798706 C18.3700008392334,-9.32699966430664 15.484999656677246,-13.77400016784668 9.52400016784668,-15.458999633789062 C3.6710000038146973,-17.115999221801758 -0.9950000047683716,-14.878999710083008 -4.420000076293945,-9.906999588012695 C-5.499000072479248,-10.265999794006348 -6.551000118255615,-10.736000061035156 -7.6570000648498535,-10.984999656677246 C-12.538999557495117,-12.03499984741211 -17.50200080871582,-8.63700008392334 -18.5,-3.609999895095825 C-18.58099937438965,-3.2230000495910645 -18.687999725341797,-3.056999921798706 -19.093000411987305,-2.9739999771118164 C-23.597000122070312,-2.062999963760376 -26.780000686645508,2.134999990463257 -26.618000030517578,6.830999851226807 C-26.45599937438965,11.387999534606934 -22.868999481201172,15.310999870300293 -18.364999771118164,15.890999794006348 C-17.9060001373291,15.946000099182129 -17.42099952697754,15.973999977111816 -16.961999893188477,15.973999977111816 C-15.748000144958496,15.973999977111816 -14.53499984741211,15.973999977111816 -13.347999572753906,15.973999977111816 C-9.706999778747559,15.973999977111816 -6.039000034332275,15.973999977111816 -2.3980000019073486,15.973999977111816 C4.020999908447266,15.973999977111816 10.468000411987305,15.972999572753906 16.886999130249023,16.000999450683594 C18.802000045776367,16.000999450683594 20.555999755859375,15.47700023651123 22.038999557495117,14.538000106811523 C24.493000030517578,13.019000053405762 26.165000915527344,10.449999809265137 26.48900032043457,7.659999847412109 C26.48900032043457,7.548999786376953 26.542999267578125,7.4670000076293945 26.56999969482422,7.355999946594238 C26.624000549316406,6.7210001945495605 26.624000549316406,6.085999965667725 26.624000549316406,5.422999858856201z"></path></g></g><g transform="matrix(2.2200000286102295,0,0,2.2200000286102295,210.57009887695312,142.47999572753906)" opacity="1" style="display: block;"><g opacity="1" transform="matrix(1,0,0,1,26.624000549316406,16)"><path fill="url(#__lottie_element_49)" fill-opacity="1" d=" M26.624000549316406,5.422999858856201 C26.542999267578125,5.008999824523926 26.48900032043457,4.593999862670898 26.354000091552734,4.179999828338623 C25.302000045776367,0.36800000071525574 22.875,-2.006999969482422 19.152999877929688,-2.9739999771118164 C19.01799964904785,-3.002000093460083 18.882999420166016,-3.0290000438690186 18.802000045776367,-3.056999921798706 C18.3700008392334,-9.32699966430664 15.484999656677246,-13.77400016784668 9.52400016784668,-15.458999633789062 C3.6710000038146973,-17.115999221801758 -0.9950000047683716,-14.878999710083008 -4.420000076293945,-9.906999588012695 C-5.499000072479248,-10.265999794006348 -6.551000118255615,-10.736000061035156 -7.6570000648498535,-10.984999656677246 C-12.538999557495117,-12.03499984741211 -17.50200080871582,-8.63700008392334 -18.5,-3.609999895095825 C-18.58099937438965,-3.2230000495910645 -18.687999725341797,-3.056999921798706 -19.093000411987305,-2.9739999771118164 C-23.597000122070312,-2.062999963760376 -26.780000686645508,2.134999990463257 -26.618000030517578,6.830999851226807 C-26.45599937438965,11.387999534606934 -22.868999481201172,15.310999870300293 -18.364999771118164,15.890999794006348 C-17.9060001373291,15.946000099182129 -17.42099952697754,15.973999977111816 -16.961999893188477,15.973999977111816 C-15.748000144958496,15.973999977111816 -14.53499984741211,15.973999977111816 -13.347999572753906,15.973999977111816 C-9.706999778747559,15.973999977111816 -6.039000034332275,15.973999977111816 -2.3980000019073486,15.973999977111816 C4.020999908447266,15.973999977111816 10.468000411987305,15.972999572753906 16.886999130249023,16.000999450683594 C18.802000045776367,16.000999450683594 20.555999755859375,15.47700023651123 22.038999557495117,14.538000106811523 C24.493000030517578,13.019000053405762 26.165000915527344,10.449999809265137 26.48900032043457,7.659999847412109 C26.48900032043457,7.548999786376953 26.542999267578125,7.4670000076293945 26.56999969482422,7.355999946594238 C26.624000549316406,6.7210001945495605 26.624000549316406,6.085999965667725 26.624000549316406,5.422999858856201z"></path></g></g><g transform="matrix(1.0265583992004395,0,0,1.0265583992004395,647.3598022460938,33.65545654296875)" opacity="1" style="display: block;"><g opacity="1" transform="matrix(1,0,0,1,70.30400085449219,53.82699966430664)"><path fill="rgb(240,66,66)" fill-opacity="1" d=" M-2.3420000076293945,-24.7189998626709 C-2.3420000076293945,-24.7189998626709 -0.009999999776482582,-22.459999084472656 -0.009999999776482582,-22.459999084472656 C-0.009999999776482582,-22.459999084472656 2.249000072479248,-24.79199981689453 2.249000072479248,-24.79199981689453 C2.249000072479248,-24.79199981689453 18.542999267578125,-41.61399841308594 18.542999267578125,-41.61399841308594 C29.190000534057617,-52.60599899291992 46.72100067138672,-52.8849983215332 57.7130012512207,-42.237998962402344 C68.70600128173828,-31.59000015258789 68.98100280761719,-14.0600004196167 58.3390007019043,-3.0999999046325684 C58.3390007019043,-3.0999999046325684 58.33599853515625,-3.0969998836517334 58.33599853515625,-3.0969998836517334 C58.33599853515625,-3.0969998836517334 9.22599983215332,47.60300064086914 9.22599983215332,47.60300064086914 C9.22599983215332,47.60300064086914 9.138999938964844,47.69300079345703 9.138999938964844,47.69300079345703 C7.988999843597412,48.880001068115234 7.303999900817871,49.5880012512207 6.605000019073486,49.96699905395508 C6.605000019073486,49.96699905395508 6.168000221252441,50.20399856567383 6.168000221252441,50.20399856567383 C6.168000221252441,50.20399856567383 5.822999954223633,50.56100082397461 5.822999954223633,50.56100082397461 C4.745999813079834,51.67300033569336 2.9609999656677246,52.50699996948242 1.0549999475479126,52.69599914550781 C-0.8600000143051147,52.8849983215332 -2.368000030517578,52.38600158691406 -3.2290000915527344,51.551998138427734 C-3.2290000915527344,51.551998138427734 -57.709999084472656,-1.2200000286102295 -57.709999084472656,-1.2200000286102295 C-68.70099639892578,-11.866999626159668 -68.98100280761719,-29.39699935913086 -58.33399963378906,-40.388999938964844 C-47.6870002746582,-51.380001068115234 -30.1560001373291,-51.65999984741211 -19.163999557495117,-41.01300048828125 C-19.163999557495117,-41.01300048828125 -2.3420000076293945,-24.7189998626709 -2.3420000076293945,-24.7189998626709z"></path><path stroke-linecap="butt" stroke-linejoin="miter" fill-opacity="0" stroke-miterlimit="10" stroke="rgb(26,18,84)" stroke-opacity="1" stroke-width="6.493" d=" M-2.3420000076293945,-24.7189998626709 C-2.3420000076293945,-24.7189998626709 -0.009999999776482582,-22.459999084472656 -0.009999999776482582,-22.459999084472656 C-0.009999999776482582,-22.459999084472656 2.249000072479248,-24.79199981689453 2.249000072479248,-24.79199981689453 C2.249000072479248,-24.79199981689453 18.542999267578125,-41.61399841308594 18.542999267578125,-41.61399841308594 C29.190000534057617,-52.60599899291992 46.72100067138672,-52.8849983215332 57.7130012512207,-42.237998962402344 C68.70600128173828,-31.59000015258789 68.98100280761719,-14.0600004196167 58.3390007019043,-3.0999999046325684 C58.3390007019043,-3.0999999046325684 58.33599853515625,-3.0969998836517334 58.33599853515625,-3.0969998836517334 C58.33599853515625,-3.0969998836517334 9.22599983215332,47.60300064086914 9.22599983215332,47.60300064086914 C9.22599983215332,47.60300064086914 9.138999938964844,47.69300079345703 9.138999938964844,47.69300079345703 C7.988999843597412,48.880001068115234 7.303999900817871,49.5880012512207 6.605000019073486,49.96699905395508 C6.605000019073486,49.96699905395508 6.168000221252441,50.20399856567383 6.168000221252441,50.20399856567383 C6.168000221252441,50.20399856567383 5.822999954223633,50.56100082397461 5.822999954223633,50.56100082397461 C4.745999813079834,51.67300033569336 2.9609999656677246,52.50699996948242 1.0549999475479126,52.69599914550781 C-0.8600000143051147,52.8849983215332 -2.368000030517578,52.38600158691406 -3.2290000915527344,51.551998138427734 C-3.2290000915527344,51.551998138427734 -57.709999084472656,-1.2200000286102295 -57.709999084472656,-1.2200000286102295 C-68.70099639892578,-11.866999626159668 -68.98100280761719,-29.39699935913086 -58.33399963378906,-40.388999938964844 C-47.6870002746582,-51.380001068115234 -30.1560001373291,-51.65999984741211 -19.163999557495117,-41.01300048828125 C-19.163999557495117,-41.01300048828125 -2.3420000076293945,-24.7189998626709 -2.3420000076293945,-24.7189998626709z"></path></g></g><g clip-path="url(#__lottie_element_54)" transform="matrix(-0.05999999865889549,0,0,0.05999999865889549,1022.239013671875,159.37600708007812)" opacity="1" style="display: none;"><g transform="matrix(1,0,0,1,750,746)" opacity="1" style="display: none;"><g opacity="1" transform="matrix(1,0,0,1,0,0)"><path stroke-linecap="round" stroke-linejoin="round" fill-opacity="0" stroke="rgb(255,255,255)" stroke-opacity="1" stroke-width="40" d="M0 0"></path></g></g><g transform="matrix(1,0,0,1,487.9999694824219,522)" opacity="1" style="display: block;"><g opacity="1" transform="matrix(1,0,0,1,0,0)"><path stroke-linecap="round" stroke-linejoin="round" fill-opacity="0" stroke="rgb(255,255,255)" stroke-opacity="1" stroke-width="30" d="M0 0"></path></g></g><g transform="matrix(1,0,0,-1,347.9999694824219,1061.672119140625)" opacity="1" style="display: none;"><g opacity="1" transform="matrix(1,0,0,1,0,0)"><path stroke-linecap="round" stroke-linejoin="round" fill-opacity="0" stroke="rgb(255,255,255)" stroke-opacity="1" stroke-width="30" d="M0 0"></path></g></g></g><g clip-path="url(#__lottie_element_58)" transform="matrix(-0.05999999865889549,0,0,0.05999999865889549,257.5090026855469,247)" opacity="0.2" style="display: none;"><g transform="matrix(1,0,0,1,750,746)" opacity="1" style="display: none;"><g opacity="1" transform="matrix(1,0,0,1,0,0)"><path stroke-linecap="round" stroke-linejoin="round" fill-opacity="0" stroke="rgb(255,255,255)" stroke-opacity="1" stroke-width="40" d="M0 0"></path></g></g><g transform="matrix(1,0,0,1,487.9999694824219,522)" opacity="1" style="display: block;"><g opacity="1" transform="matrix(1,0,0,1,0,0)"><path stroke-linecap="round" stroke-linejoin="round" fill-opacity="0" stroke="rgb(255,255,255)" stroke-opacity="1" stroke-width="30" d="M0 0"></path></g></g><g transform="matrix(1,0,0,-1,347.9999694824219,1061.672119140625)" opacity="1" style="display: none;"><g opacity="1" transform="matrix(1,0,0,1,0,0)"><path stroke-linecap="round" stroke-linejoin="round" fill-opacity="0" stroke="rgb(255,255,255)" stroke-opacity="1" stroke-width="30" d="M0 0"></path></g></g></g><g clip-path="url(#__lottie_element_118)" transform="matrix(-0.05999999865889549,0,0,0.05999999865889549,582.239013671875,191.37600708007812)" opacity="1" style="display: none;"><g transform="matrix(1,0,0,1,750,746)" opacity="1" style="display: none;"><g opacity="1" transform="matrix(1,0,0,1,0,0)"><path stroke-linecap="round" stroke-linejoin="round" fill-opacity="0" stroke="rgb(255,255,255)" stroke-opacity="1" stroke-width="40" d="M0 0"></path></g></g><g transform="matrix(1,0,0,1,487.9999694824219,522)" opacity="1" style="display: block;"><g opacity="1" transform="matrix(1,0,0,1,0,0)"><path stroke-linecap="round" stroke-linejoin="round" fill-opacity="0" stroke="rgb(255,255,255)" stroke-opacity="1" stroke-width="30" d="M0 0"></path></g></g><g transform="matrix(1,0,0,-1,347.9999694824219,1061.672119140625)" opacity="1" style="display: none;"><g opacity="1" transform="matrix(1,0,0,1,0,0)"><path stroke-linecap="round" stroke-linejoin="round" fill-opacity="0" stroke="rgb(255,255,255)" stroke-opacity="1" stroke-width="30" d="M0 0"></path></g></g></g><g clip-path="url(#__lottie_element_122)" transform="matrix(-0.05999999865889549,0,0,0.05999999865889549,1357.239013671875,241)" opacity="0.2" style="display: none;"><g transform="matrix(1,0,0,1,750,746)" opacity="1" style="display: none;"><g opacity="1" transform="matrix(1,0,0,1,0,0)"><path stroke-linecap="round" stroke-linejoin="round" fill-opacity="0" stroke="rgb(255,255,255)" stroke-opacity="1" stroke-width="40" d="M0 0"></path></g></g><g transform="matrix(1,0,0,1,487.9999694824219,522)" opacity="1" style="display: block;"><g opacity="1" transform="matrix(1,0,0,1,0,0)"><path stroke-linecap="round" stroke-linejoin="round" fill-opacity="0" stroke="rgb(255,255,255)" stroke-opacity="1" stroke-width="30" d="M0 0"></path></g></g><g transform="matrix(1,0,0,-1,347.9999694824219,1061.672119140625)" opacity="1" style="display: none;"><g opacity="1" transform="matrix(1,0,0,1,0,0)"><path stroke-linecap="round" stroke-linejoin="round" fill-opacity="0" stroke="rgb(255,255,255)" stroke-opacity="1" stroke-width="30" d="M0 0"></path></g></g></g></g></svg>