<svg width="1440" height="160" viewBox="0 0 1440 160" fill="none" xmlns="http://www.w3.org/2000/svg">
  <g clip-path="url(#clip0_6318_55913)">
    <rect width="1440" height="160" fill="white"/>
    <path d="M2332 -355.505C2332 -296.934 2287.25 -240.88 2205.67 -189.702C2124.15 -138.557 2006.11 -92.4608 1860.16 -53.7342C1568.28 23.715 1164.99 71.6301 719.5 71.6301C274.005 71.6301 -129.28 23.715 -421.16 -53.7342C-567.108 -92.4608 -685.145 -138.557 -766.672 -189.702C-848.25 -240.88 -893 -296.934 -893 -355.505C-893 -414.075 -848.25 -470.129 -766.672 -521.307C-685.145 -572.453 -567.108 -618.549 -421.16 -657.275C-129.28 -734.725 274.005 -782.64 719.5 -782.64C1164.99 -782.64 1568.28 -734.725 1860.16 -657.275C2006.11 -618.549 2124.15 -572.453 2205.67 -521.307C2287.25 -470.129 2332 -414.075 2332 -355.505Z" stroke="#3F7B28" stroke-width="2"/>
    <path opacity="0.9" d="M2332 -326.715C2332 -268.144 2287.25 -212.09 2205.67 -160.912C2124.15 -109.767 2006.11 -63.6707 1860.16 -24.9442C1568.28 52.505 1164.99 100.42 719.5 100.42C274.005 100.42 -129.28 52.505 -421.16 -24.9442C-567.108 -63.6707 -685.145 -109.767 -766.672 -160.912C-848.25 -212.09 -893 -268.144 -893 -326.715C-893 -385.285 -848.25 -441.339 -766.672 -492.517C-685.145 -543.662 -567.108 -589.759 -421.16 -628.485C-129.28 -705.934 274.005 -753.85 719.5 -753.85C1164.99 -753.85 1568.28 -705.934 1860.16 -628.485C2006.11 -589.759 2124.15 -543.662 2205.67 -492.517C2287.25 -441.339 2332 -385.285 2332 -326.715Z" stroke="#3F7B28" stroke-width="2"/>
    <path opacity="0.7" d="M2332 -297.925C2332 -239.354 2287.25 -183.3 2205.67 -132.122C2124.15 -80.9769 2006.11 -34.8807 1860.16 3.84589C1568.28 81.295 1164.99 129.21 719.5 129.21C274.005 129.21 -129.28 81.295 -421.16 3.84589C-567.108 -34.8807 -685.145 -80.9769 -766.672 -132.122C-848.25 -183.3 -893 -239.354 -893 -297.925C-893 -356.495 -848.25 -412.549 -766.672 -463.727C-685.145 -514.872 -567.108 -560.969 -421.16 -599.695C-129.28 -677.144 274.005 -725.06 719.5 -725.06C1164.99 -725.06 1568.28 -677.144 1860.16 -599.695C2006.11 -560.969 2124.15 -514.872 2205.67 -463.727C2287.25 -412.549 2332 -356.495 2332 -297.925Z" stroke="#3F7B28" stroke-width="2"/>
    <path opacity="0.56" d="M2332 -269.135C2332 -210.564 2287.25 -154.51 2205.67 -103.332C2124.15 -52.1869 2006.11 -6.09064 1860.16 32.6359C1568.28 110.085 1164.99 158 719.5 158C274.005 158 -129.28 110.085 -421.16 32.6359C-567.108 -6.09064 -685.145 -52.1869 -766.672 -103.332C-848.25 -154.51 -893 -210.564 -893 -269.135C-893 -327.705 -848.25 -383.759 -766.672 -434.937C-685.145 -486.082 -567.108 -532.179 -421.16 -570.905C-129.28 -648.354 274.005 -696.27 719.5 -696.27C1164.99 -696.27 1568.28 -648.354 1860.16 -570.905C2006.11 -532.179 2124.15 -486.082 2205.67 -434.937C2287.25 -383.759 2332 -327.705 2332 -269.135Z" stroke="#3F7B28" stroke-width="2"/>
    <ellipse cx="719.5" cy="-377" rx="1613.5" ry="428" fill="#3F7B28"/>
  </g>
  <defs>
    <clipPath id="clip0_6318_55913">
      <rect width="1440" height="160" fill="white"/>
    </clipPath>
  </defs>
</svg>
